<svg width="26" height="28" viewBox="0 0 26 28" fill="none" xmlns="http://www.w3.org/2000/svg">
<path d="M14.0827 3.5C14.2263 3.5 14.3641 3.56146 14.4657 3.67085C14.5673 3.78025 14.6243 3.92862 14.6243 4.08333V6.41667C14.6243 6.57138 14.5673 6.71975 14.4657 6.82915C14.3641 6.93854 14.2263 7 14.0827 7C13.939 7 13.8012 6.93854 13.6997 6.82915C13.5981 6.71975 13.541 6.57138 13.541 6.41667V5.83333H10.291V4.66667H13.541V4.08333C13.541 3.92862 13.5981 3.78025 13.6997 3.67085C13.8012 3.56146 13.939 3.5 14.0827 3.5Z" fill="#6E7079"/>
<path d="M8.66602 3.5C8.52236 3.5 8.38458 3.56146 8.283 3.67085C8.18142 3.78025 8.12435 3.92862 8.12435 4.08333V4.66667H7.04102C6.61004 4.66667 6.19671 4.85104 5.89197 5.17923C5.58722 5.50742 5.41602 5.95254 5.41602 6.41667V20.4167C5.41602 20.8808 5.58722 21.3259 5.89197 21.6541C6.19671 21.9823 6.61004 22.1667 7.04102 22.1667H16.2493C16.6803 22.1667 17.0936 21.9823 17.3984 21.6541C17.7031 21.3259 17.8743 20.8808 17.8743 20.4167V6.41667C17.8743 5.95254 17.7031 5.50742 17.3984 5.17923C17.0936 4.85104 16.6803 4.66667 16.2493 4.66667H15.7077V5.83333H16.2493C16.393 5.83333 16.5308 5.89479 16.6324 6.00419C16.7339 6.11358 16.791 6.26196 16.791 6.41667V20.4167C16.791 20.5714 16.7339 20.7197 16.6324 20.8291C16.5308 20.9385 16.393 21 16.2493 21H7.04102C6.89736 21 6.75958 20.9385 6.658 20.8291C6.55642 20.7197 6.49935 20.5714 6.49935 20.4167V6.41667C6.49935 6.26196 6.55642 6.11358 6.658 6.00419C6.75958 5.89479 6.89736 5.83333 7.04102 5.83333H8.12435V6.41667C8.12435 6.57138 8.18142 6.71975 8.283 6.82915C8.38458 6.93854 8.52236 7 8.66602 7C8.80967 7 8.94745 6.93854 9.04903 6.82915C9.15061 6.71975 9.20768 6.57138 9.20768 6.41667V4.08333C9.20768 3.92862 9.15061 3.78025 9.04903 3.67085C8.94745 3.56146 8.80967 3.5 8.66602 3.5Z" fill="#6E7079"/>
<path d="M7.58398 11.0833C7.58398 10.9286 7.64105 10.7803 7.74263 10.6709C7.84422 10.5615 7.98199 10.5 8.12565 10.5H15.1673C15.311 10.5 15.4488 10.5615 15.5503 10.6709C15.6519 10.7803 15.709 10.9286 15.709 11.0833C15.709 11.238 15.6519 11.3864 15.5503 11.4958C15.4488 11.6052 15.311 11.6667 15.1673 11.6667H8.12565C7.98199 11.6667 7.84422 11.6052 7.74263 11.4958C7.64105 11.3864 7.58398 11.238 7.58398 11.0833ZM8.12565 13.4167C7.98199 13.4167 7.84422 13.4781 7.74263 13.5875C7.64105 13.6969 7.58398 13.8453 7.58398 14C7.58398 14.1547 7.64105 14.3031 7.74263 14.4125C7.84422 14.5219 7.98199 14.5833 8.12565 14.5833H11.9173C12.061 14.5833 12.1988 14.5219 12.3003 14.4125C12.4019 14.3031 12.459 14.1547 12.459 14C12.459 13.8453 12.4019 13.6969 12.3003 13.5875C12.1988 13.4781 12.061 13.4167 11.9173 13.4167H8.12565ZM7.58398 16.9167C7.58398 16.762 7.64105 16.6136 7.74263 16.5042C7.84422 16.3948 7.98199 16.3333 8.12565 16.3333H14.084C14.2276 16.3333 14.3654 16.3948 14.467 16.5042C14.5686 16.6136 14.6257 16.762 14.6257 16.9167C14.6257 17.0714 14.5686 17.2197 14.467 17.3291C14.3654 17.4385 14.2276 17.5 14.084 17.5H8.12565C7.98199 17.5 7.84422 17.4385 7.74263 17.3291C7.64105 17.2197 7.58398 17.0714 7.58398 16.9167Z" fill="#6E7079"/>
<path d="M7.04167 23.333C6.32337 23.333 5.6345 23.0257 5.12659 22.4787C4.61867 21.9318 4.33333 21.1899 4.33333 20.4163V5.83301H3.25V20.4163C3.25 21.4993 3.64948 22.5379 4.36055 23.3037C5.07163 24.0695 6.03605 24.4997 7.04167 24.4997H16.25V23.333H7.04167Z" fill="#6E7079"/>
<path fill-rule="evenodd" clip-rule="evenodd" d="M19.5 7.58301C19.5 7.11888 19.6712 6.67376 19.976 6.34557C20.2807 6.01738 20.694 5.83301 21.125 5.83301C21.556 5.83301 21.9693 6.01738 22.274 6.34557C22.5788 6.67376 22.75 7.11888 22.75 7.58301V19.4264L21.125 22.0514L19.5 19.4264V7.58301ZM21.125 6.99967C20.9813 6.99967 20.8436 7.06113 20.742 7.17053C20.6404 7.27993 20.5833 7.4283 20.5833 7.58301V8.74967H21.6667V7.58301C21.6667 7.4283 21.6096 7.27993 21.508 7.17053C21.4064 7.06113 21.2687 6.99967 21.125 6.99967ZM21.125 19.9479L21.6667 19.0729V9.91634H20.5833V19.0729L21.125 19.9479Z" fill="#6E7079"/>
</svg>
