<svg width="128" height="128" viewBox="0 0 128 128" fill="none" xmlns="http://www.w3.org/2000/svg">
<g filter="url(#filter0_d_562_11452)">
<rect x="16" y="16" width="96" height="96" rx="48" fill="#E5E7F4" shape-rendering="crispEdges"/>
<g clip-path="url(#clip0_562_11452)">
<path d="M45.5352 77.438C43.9313 77.438 42.3643 77.0287 40.9442 76.2313C40.2135 75.855 39.9305 74.9136 40.367 74.2053C41.8173 71.8879 42.3411 69.055 41.677 66.3908C40.9888 63.6288 39.9929 61.3027 40 58.3788C40.0248 48.1207 48.563 39.8045 58.8106 40.0035C68.7086 40.2029 76.866 48.5233 76.8661 58.4239C76.8662 71.3543 63.315 80.4325 51.3518 75.4393C49.7028 76.7336 47.6302 77.438 45.5352 77.438ZM43.5863 74.281C45.8399 74.9809 48.3744 74.4218 50.1122 72.7417C50.5404 72.3277 51.1809 72.2235 51.7182 72.4805C61.9604 77.3774 74.0146 69.7019 74.0145 58.4239C74.0145 50.0082 67.1683 43.0237 58.7532 42.8543C50.0811 42.6821 42.8724 49.7056 42.8515 58.3857C42.8447 61.1628 43.9282 63.3823 44.5204 66.0131C45.1442 68.7855 44.8156 71.7172 43.5863 74.281Z" fill="#041492"/>
<path d="M82.4627 88C80.3679 88 78.2951 87.2955 76.6464 86.0014C70.2842 88.6567 62.7163 87.4474 57.4997 82.9424C56.9038 82.4277 56.838 81.5275 57.3525 80.9314C57.8672 80.3356 58.7674 80.2696 59.3634 80.7844C63.99 84.7799 70.7658 85.6787 76.2799 83.0426C76.817 82.7855 77.4574 82.8898 77.8858 83.3038C79.6236 84.9838 82.1582 85.5433 84.4118 84.843C82.9616 81.8182 82.7607 78.3529 83.8845 75.1448C83.8946 75.116 83.9057 75.0876 83.9176 75.0593C84.7383 73.1245 85.1519 71.0681 85.1468 68.9476C85.1377 65.2089 83.894 61.7505 81.5499 58.946C81.045 58.3418 81.1254 57.4427 81.7296 56.9378C82.3336 56.4327 83.2329 56.5133 83.7378 57.1174C86.4747 60.3919 87.9877 64.5908 87.9982 68.9407C88.0042 71.4323 87.5208 73.8503 86.5614 76.1286C85.5537 79.0457 86.0171 82.1691 87.6309 84.7671C88.0678 85.4754 87.7846 86.417 87.0536 86.7935C85.6338 87.5906 84.0664 87.9999 82.4627 88Z" fill="#041492"/>
<path d="M58.4317 60.7498C59.6777 60.7498 60.6877 59.7403 60.6877 58.495C60.6877 57.2497 59.6777 56.2402 58.4317 56.2402C57.1858 56.2402 56.1758 57.2497 56.1758 58.495C56.1758 59.7403 57.1858 60.7498 58.4317 60.7498Z" fill="#041492"/>
<path d="M50.1212 60.7498C51.3671 60.7498 52.3771 59.7403 52.3771 58.495C52.3771 57.2497 51.3671 56.2402 50.1212 56.2402C48.8753 56.2402 47.8652 57.2497 47.8652 58.495C47.8652 59.7403 48.8753 60.7498 50.1212 60.7498Z" fill="#041492"/>
<path d="M66.7442 60.7498C67.9902 60.7498 69.0002 59.7403 69.0002 58.495C69.0002 57.2497 67.9902 56.2402 66.7442 56.2402C65.4983 56.2402 64.4883 57.2497 64.4883 58.495C64.4883 59.7403 65.4983 60.7498 66.7442 60.7498Z" fill="#041492"/>
</g>
</g>
<defs>
<filter id="filter0_d_562_11452" x="0" y="0" width="128" height="128" filterUnits="userSpaceOnUse" color-interpolation-filters="sRGB">
<feFlood flood-opacity="0" result="BackgroundImageFix"/>
<feColorMatrix in="SourceAlpha" type="matrix" values="0 0 0 0 0 0 0 0 0 0 0 0 0 0 0 0 0 0 127 0" result="hardAlpha"/>
<feOffset/>
<feGaussianBlur stdDeviation="8"/>
<feComposite in2="hardAlpha" operator="out"/>
<feColorMatrix type="matrix" values="0 0 0 0 0.0156863 0 0 0 0 0.0784314 0 0 0 0 0.572549 0 0 0 0.08 0"/>
<feBlend mode="normal" in2="BackgroundImageFix" result="effect1_dropShadow_562_11452"/>
<feBlend mode="normal" in="SourceGraphic" in2="effect1_dropShadow_562_11452" result="shape"/>
</filter>
<clipPath id="clip0_562_11452">
<rect width="48" height="48" fill="white" transform="translate(40 40)"/>
</clipPath>
</defs>
</svg>
