<svg width="24" height="24" viewBox="0 0 24 24" fill="none" xmlns="http://www.w3.org/2000/svg">
<g clip-path="url(#clip0_4170_21194)">
<path fill-rule="evenodd" clip-rule="evenodd" d="M11.2494 3.00049C11.2494 1.75849 10.2414 0.750488 8.9994 0.750488H3C1.758 0.750488 0.75 1.75849 0.75 3.00049V8.99989C0.75 10.2419 1.758 11.2499 3 11.2499H8.9994C10.2414 11.2499 11.2494 10.2419 11.2494 8.99989V3.00049ZM9.75 3.00049V8.99989C9.75 9.41389 9.4134 9.75049 8.9994 9.75049H3C2.586 9.75049 2.2494 9.41389 2.2494 8.99989V3.00049C2.2494 2.58649 2.586 2.24989 3 2.24989H8.9994C9.4134 2.24989 9.75 2.58649 9.75 3.00049Z" fill="#6E7079"/>
<path fill-rule="evenodd" clip-rule="evenodd" d="M11.2494 15.0005C11.2494 13.7585 10.2414 12.7505 8.9994 12.7505H3C1.758 12.7505 0.75 13.7585 0.75 15.0005V20.9999C0.75 22.2419 1.758 23.2499 3 23.2499H8.9994C10.2414 23.2499 11.2494 22.2419 11.2494 20.9999V15.0005ZM9.75 15.0005V20.9999C9.75 21.4139 9.4134 21.7505 8.9994 21.7505H3C2.586 21.7505 2.2494 21.4139 2.2494 20.9999V15.0005C2.2494 14.5865 2.586 14.2499 3 14.2499H8.9994C9.4134 14.2499 9.75 14.5865 9.75 15.0005Z" fill="#6E7079"/>
<path fill-rule="evenodd" clip-rule="evenodd" d="M23.2494 3.00049C23.2494 1.75849 22.2414 0.750488 20.9994 0.750488H15C13.758 0.750488 12.75 1.75849 12.75 3.00049V8.99989C12.75 10.2419 13.758 11.2499 15 11.2499H20.9994C22.2414 11.2499 23.2494 10.2419 23.2494 8.99989V3.00049ZM21.75 3.00049V8.99989C21.75 9.41389 21.4134 9.75049 20.9994 9.75049H15C14.586 9.75049 14.2494 9.41389 14.2494 8.99989V3.00049C14.2494 2.58649 14.586 2.24989 15 2.24989H20.9994C21.4134 2.24989 21.75 2.58649 21.75 3.00049Z" fill="#6E7079"/>
<path fill-rule="evenodd" clip-rule="evenodd" d="M23.2494 15.0005C23.2494 13.7585 22.2414 12.7505 20.9994 12.7505H15C13.758 12.7505 12.75 13.7585 12.75 15.0005V20.9999C12.75 22.2419 13.758 23.2499 15 23.2499H20.9994C22.2414 23.2499 23.2494 22.2419 23.2494 20.9999V15.0005ZM21.75 15.0005V20.9999C21.75 21.4139 21.4134 21.7505 20.9994 21.7505H15C14.586 21.7505 14.2494 21.4139 14.2494 20.9999V15.0005C14.2494 14.5865 14.586 14.2499 15 14.2499H20.9994C21.4134 14.2499 21.75 14.5865 21.75 15.0005Z" fill="#6E7079"/>
</g>
<defs>
<clipPath id="clip0_4170_21194">
<rect width="24" height="24" fill="white"/>
</clipPath>
</defs>
</svg>
