<svg width="24" height="24" viewBox="0 0 24 24" fill="none" xmlns="http://www.w3.org/2000/svg">
<g clip-path="url(#clip0_554_10076)">
<path d="M23.0941 9.91355L13.3042 9.91309C12.8719 9.91309 12.5215 10.2634 12.5215 10.6957V13.823C12.5215 14.2552 12.8719 14.6056 13.3041 14.6056H18.8172C18.2135 16.1722 17.0868 17.4842 15.6492 18.3178L18 22.387C21.7709 20.2062 24.0003 16.3799 24.0003 12.0965C24.0003 11.4866 23.9553 11.0506 23.8654 10.5597C23.7971 10.1867 23.4733 9.91355 23.0941 9.91355Z" fill="#167EE6"/>
<path d="M12.0008 19.3044C9.30281 19.3044 6.9475 17.8304 5.68252 15.6492L1.61328 17.9945C3.68409 21.5834 7.56338 24.0001 12.0008 24.0001C14.1776 24.0001 16.2317 23.414 18.0011 22.3927V22.3871L15.6503 18.3179C14.5751 18.9415 13.3307 19.3044 12.0008 19.3044Z" fill="#12B347"/>
<path d="M18.0003 22.3927V22.3871L15.6495 18.3179C14.5743 18.9414 13.3301 19.3044 12 19.3044V24.0001C14.1768 24.0001 16.231 23.414 18.0003 22.3927Z" fill="#0F993E"/>
<path d="M4.6959 12C4.6959 10.6702 5.05882 9.42613 5.68234 8.35096L1.6131 6.00562C0.586061 7.76938 0 9.81772 0 12C0 14.1824 0.586061 16.2307 1.6131 17.9945L5.68234 15.6491C5.05882 14.5739 4.6959 13.3298 4.6959 12Z" fill="#FFD500"/>
<path d="M12.0008 4.69566C13.7601 4.69566 15.3762 5.32078 16.6385 6.36061C16.9499 6.61711 17.4025 6.59859 17.6877 6.31336L19.9036 4.09758C20.2272 3.77395 20.2042 3.24422 19.8585 2.94431C17.7436 1.10967 14.9919 0 12.0008 0C7.56338 0 3.68409 2.41673 1.61328 6.00558L5.68252 8.35092C6.9475 6.16969 9.30281 4.69566 12.0008 4.69566Z" fill="#FF4B26"/>
<path d="M16.6377 6.36061C16.9491 6.61711 17.4017 6.59859 17.6869 6.31336L19.9028 4.09758C20.2264 3.77395 20.2034 3.24422 19.8577 2.94431C17.7428 1.10963 14.9911 0 12 0V4.69566C13.7593 4.69566 15.3754 5.32078 16.6377 6.36061Z" fill="#D93F21"/>
</g>
<defs>
<clipPath id="clip0_554_10076">
<rect width="24" height="24" fill="white"/>
</clipPath>
</defs>
</svg>
