<svg width="24" height="24" viewBox="0 0 24 24" fill="none" xmlns="http://www.w3.org/2000/svg">
<g clip-path="url(#clip0_4523_24526)">
<path d="M11.9996 4.8C13.3251 4.8 14.3996 3.72548 14.3996 2.4C14.3996 1.07452 13.3251 0 11.9996 0C10.6741 0 9.59961 1.07452 9.59961 2.4C9.59961 3.72548 10.6741 4.8 11.9996 4.8Z" fill="white"/>
<path d="M2.4 7.1999C3.72548 7.1999 4.8 6.12539 4.8 4.7999C4.8 3.47442 3.72548 2.3999 2.4 2.3999C1.07452 2.3999 0 3.47442 0 4.7999C0 6.12539 1.07452 7.1999 2.4 7.1999Z" fill="white"/>
<path d="M13.2004 6H10.8004C9.48039 6 8.40039 7.08 8.40039 8.4V10.8H15.6004V8.4C15.6004 7.08 14.5204 6 13.2004 6Z" fill="white"/>
<path d="M7.2 15.5999H4.8V10.7999C4.8 9.4799 3.72 8.3999 2.4 8.3999C1.08 8.3999 0 9.4799 0 10.7999V16.7999C0 18.8399 1.56 20.3999 3.6 20.3999H6V23.9999H10.8V19.1999C10.8 17.1599 9.24 15.5999 7.2 15.5999Z" fill="white"/>
<path d="M21.5992 7.1999C22.9247 7.1999 23.9992 6.12539 23.9992 4.7999C23.9992 3.47442 22.9247 2.3999 21.5992 2.3999C20.2737 2.3999 19.1992 3.47442 19.1992 4.7999C19.1992 6.12539 20.2737 7.1999 21.5992 7.1999Z" fill="white"/>
<path d="M21.5992 8.3999C20.2792 8.3999 19.1992 9.4799 19.1992 10.7999V15.5999H16.7992C14.7592 15.5999 13.1992 17.1599 13.1992 19.1999V23.9999H17.9992V20.3999H20.3992C22.4392 20.3999 23.9992 18.8399 23.9992 16.7999V10.7999C23.9992 9.4799 22.9192 8.3999 21.5992 8.3999Z" fill="white"/>
<path d="M18 12H6V14.4H18V12Z" fill="white"/>
</g>
<defs>
<clipPath id="clip0_4523_24526">
<rect width="24" height="24" fill="white"/>
</clipPath>
</defs>
</svg>
