<svg width="25" height="25" viewBox="0 0 25 25" fill="none" xmlns="http://www.w3.org/2000/svg">
<circle cx="12.5186" cy="12.2808" r="12" fill="#4FB664"/>
<g clip-path="url(#clip0_7770_40411)">
<path d="M12.5186 0.280762C5.89884 0.280762 0.518555 5.66104 0.518555 12.2808C0.518555 18.9005 5.89884 24.2808 12.5186 24.2808C19.1383 24.2808 24.5186 18.9005 24.5186 12.2808C24.5186 5.66104 19.1383 0.280762 12.5186 0.280762ZM12.5186 23.0695C6.57489 23.0695 1.72982 18.2244 1.72982 12.2808C1.72982 6.3371 6.57489 1.49203 12.5186 1.49203C18.4622 1.49203 23.3073 6.3371 23.3073 12.2808C23.3073 18.2244 18.4622 23.0695 12.5186 23.0695Z" fill="white"/>
<path d="M16.7553 8.54906L16.7553 8.54907L11.3575 13.9474L9.28116 11.8716C9.08508 11.6755 8.76736 11.6755 8.57128 11.8716C8.3752 12.0677 8.3752 12.3854 8.57128 12.5815L11.0023 15.0125C11.0967 15.1069 11.2246 15.1593 11.3575 15.1593C11.4906 15.1593 11.618 15.1067 11.7123 15.0118C11.7124 15.0117 11.7125 15.0116 11.7126 15.0115L17.4652 9.25894C17.6612 9.06286 17.6612 8.74514 17.4652 8.54906C17.2691 8.35298 16.9514 8.35298 16.7553 8.54906Z" fill="white" stroke="white" stroke-width="0.3"/>
</g>
<defs>
<clipPath id="clip0_7770_40411">
<rect width="24" height="24" fill="white" transform="translate(0.518555 0.280762)"/>
</clipPath>
</defs>
</svg>
