<svg width="27" height="28" viewBox="0 0 27 28" fill="none" xmlns="http://www.w3.org/2000/svg">
<path d="M7.44187 24.5C6.92437 24.5 6.49237 24.3203 6.14587 23.961C5.79862 23.6009 5.625 23.1525 5.625 22.6158V5.38417C5.625 4.8475 5.79862 4.3995 6.14587 4.04017C6.49237 3.68006 6.92437 3.5 7.44187 3.5H16.3125L21.375 8.75V22.6158C21.375 23.1525 21.2018 23.6005 20.8553 23.9598C20.508 24.3199 20.0756 24.5 19.5581 24.5H7.44187ZM15.75 9.33333V4.66667H7.44187C7.26937 4.66667 7.11075 4.74133 6.966 4.89067C6.822 5.04078 6.75 5.20528 6.75 5.38417V22.6158C6.75 22.7947 6.822 22.9592 6.966 23.1093C7.11075 23.2587 7.26937 23.3333 7.44187 23.3333H19.5581C19.7306 23.3333 19.8893 23.2587 20.034 23.1093C20.178 22.9592 20.25 22.7947 20.25 22.6158V9.33333H15.75Z" fill="#6E7079"/>
</svg>
