<svg width="24" height="24" viewBox="0 0 24 24" fill="none" xmlns="http://www.w3.org/2000/svg">
<path d="M12 1.5C9.21523 1.5 6.54451 2.60625 4.57538 4.57538C2.60625 6.54451 1.5 9.21523 1.5 12C1.5 12.1989 1.57902 12.3897 1.71967 12.5303C1.86032 12.671 2.05109 12.75 2.25 12.75H11.25V21.75C11.25 21.9489 11.329 22.1397 11.4697 22.2803C11.6103 22.421 11.8011 22.5 12 22.5C14.7848 22.5 17.4555 21.3938 19.4246 19.4246C21.3938 17.4555 22.5 14.7848 22.5 12C22.5 9.21523 21.3938 6.54451 19.4246 4.57538C17.4555 2.60625 14.7848 1.5 12 1.5ZM12.75 21V12C12.75 11.8011 12.671 11.6103 12.5303 11.4697C12.3897 11.329 12.1989 11.25 12 11.25H3C3.14928 9.54331 3.78259 7.91468 4.82551 6.55548C5.86843 5.19629 7.27762 4.163 8.88751 3.57703C10.4974 2.99106 12.2411 2.87676 13.9137 3.24756C15.5863 3.61836 17.1183 4.45885 18.3297 5.67027C19.5412 6.88169 20.3816 8.41372 20.7524 10.0863C21.1232 11.7589 21.0089 13.5026 20.423 15.1125C19.837 16.7224 18.8037 18.1316 17.4445 19.1745C16.0853 20.2174 14.4567 20.8507 12.75 21Z" fill="#6E7079"/>
<path d="M9.0003 14.2499H2.7228C2.60129 14.2439 2.48014 14.2675 2.36979 14.3187C2.25944 14.3699 2.16321 14.4472 2.08939 14.5439C2.01557 14.6406 1.96639 14.7538 1.94608 14.8738C1.92576 14.9937 1.93493 15.1168 1.9728 15.2324C2.48453 16.8109 3.36306 18.2456 4.53637 19.4189C5.70968 20.5922 7.14436 21.4707 8.7228 21.9824C8.83841 22.0203 8.9615 22.0295 9.08145 22.0092C9.2014 21.9889 9.3146 21.9397 9.4113 21.8659C9.508 21.792 9.5853 21.6958 9.63652 21.5855C9.68773 21.4751 9.71134 21.354 9.7053 21.2324V14.9999C9.70564 14.8086 9.63283 14.6243 9.50177 14.4849C9.37071 14.3455 9.19131 14.2614 9.0003 14.2499ZM8.2503 20.1749C6.29347 19.2767 4.7235 17.7068 3.8253 15.7499H8.2503V20.1749Z" fill="#6E7079"/>
</svg>
