<svg width="24" height="24" viewBox="0 0 24 24" fill="none" xmlns="http://www.w3.org/2000/svg">
<path d="M11.9999 0C5.38316 0 0 5.38316 0 11.9999C0 18.6167 5.38305 24 11.9998 24C18.6166 24 23.9997 18.6167 23.9997 11.9999C23.9998 5.38316 18.6167 0 11.9999 0ZM11.9999 22.3573C6.28895 22.3573 1.64282 17.7109 1.64282 11.9999C1.64271 6.28895 6.28895 1.64271 11.9999 1.64271C17.7108 1.64271 22.3571 6.28895 22.3571 11.9999C22.3571 17.711 17.7108 22.3573 11.9999 22.3573Z" fill="#041492"/>
<path d="M18.1907 11.8396H12.4904V5.61237C12.4904 5.15876 12.1227 4.79102 11.669 4.79102C11.2154 4.79102 10.8477 5.15876 10.8477 5.61237V12.6609C10.8477 13.1145 11.2154 13.4823 11.669 13.4823H18.1907C18.6444 13.4823 19.012 13.1145 19.012 12.6609C19.012 12.2073 18.6443 11.8396 18.1907 11.8396Z" fill="#041492"/>
</svg>
