<svg width="24" height="24" viewBox="0 0 24 24" fill="none" xmlns="http://www.w3.org/2000/svg">
<path d="M0.749775 11.625H1.49977V19.125H2.24977V11.625H3.98228L4.04603 12.1387C4.07443 12.3609 4.16848 12.5694 4.31612 12.7378C4.46376 12.9061 4.65828 13.0266 4.87478 13.0837V13.8937C4.52668 13.9186 4.20272 14.0807 3.97416 14.3445C3.7456 14.6082 3.63116 14.9519 3.65603 15.3C3.68089 15.6481 3.84302 15.9721 4.10674 16.2006C4.37046 16.4292 4.71418 16.5436 5.06228 16.5187H7.12478V16.9275C6.60404 17.0155 6.13085 17.2839 5.78805 17.6856C5.44526 18.0874 5.25472 18.5969 5.24978 19.125H5.99978C6.00085 18.7933 6.11185 18.4713 6.31541 18.2094C6.51897 17.9475 6.8036 17.7604 7.12478 17.6775V19.125H7.87478V17.6775C8.19595 17.7604 8.48059 17.9475 8.68414 18.2094C8.8877 18.4713 8.9987 18.7933 8.99978 19.125H9.74978C9.74924 18.5937 9.56068 18.0797 9.21751 17.674C8.87433 17.2684 8.39867 16.9973 7.87478 16.9088V16.5H9.93728C10.2854 16.5249 10.6291 16.4104 10.8928 16.1819C11.1565 15.9533 11.3187 15.6293 11.3435 15.2812C11.3684 14.9332 11.254 14.5894 11.0254 14.3257C10.7968 14.062 10.4729 13.8999 10.1248 13.875V13.0837C10.3413 13.0266 10.5358 12.9061 10.6834 12.7378C10.8311 12.5694 10.9251 12.3609 10.9535 12.1387L11.0173 11.625H16.4998V18.75C16.4998 18.8495 16.5393 18.9448 16.6096 19.0152C16.6799 19.0855 16.7753 19.125 16.8748 19.125H22.1248C22.2242 19.125 22.3196 19.0855 22.3899 19.0152C22.4603 18.9448 22.4998 18.8495 22.4998 18.75V11.625H23.2498C23.3168 11.6251 23.3826 11.6073 23.4404 11.5734C23.4982 11.5395 23.5458 11.4907 23.5783 11.4321C23.6109 11.3735 23.6271 11.3073 23.6254 11.2403C23.6237 11.1734 23.604 11.1081 23.5685 11.0512L21.6935 8.05125C21.6597 7.99721 21.6128 7.95266 21.557 7.92183C21.5012 7.89099 21.4385 7.87487 21.3748 7.875H20.2498V4.875C20.2498 4.77554 20.2103 4.68016 20.1399 4.60984C20.0696 4.53951 19.9742 4.5 19.8748 4.5H13.8748C13.7753 4.5 13.6799 4.53951 13.6096 4.60984C13.5393 4.68016 13.4998 4.77554 13.4998 4.875V7.875H11.486L11.6248 6.795C11.6312 6.74266 11.6265 6.68955 11.611 6.63915C11.5955 6.58875 11.5695 6.54219 11.5348 6.5025C11.4992 6.46202 11.4554 6.42968 11.4062 6.40768C11.357 6.38568 11.3037 6.37453 11.2498 6.375H3.74978C3.69653 6.37507 3.64391 6.38647 3.59542 6.40846C3.54692 6.43044 3.50367 6.4625 3.46853 6.5025C3.4338 6.54219 3.40784 6.58875 3.39233 6.63915C3.37682 6.68955 3.37212 6.74266 3.37853 6.795L3.51353 7.875H2.62477C2.56105 7.87487 2.49834 7.89099 2.44256 7.92183C2.38679 7.95266 2.3398 7.99721 2.30603 8.05125L0.431025 11.0512C0.395513 11.1081 0.375873 11.1734 0.374148 11.2403C0.372423 11.3073 0.388675 11.3735 0.421214 11.4321C0.453754 11.4907 0.501392 11.5395 0.559174 11.5734C0.616957 11.6073 0.682772 11.6251 0.749775 11.625ZM16.2298 10.875C16.2962 10.7631 16.3906 10.6704 16.5037 10.606C16.6167 10.5416 16.7446 10.5077 16.8748 10.5077C17.0049 10.5077 17.1328 10.5416 17.2459 10.606C17.359 10.6704 17.4534 10.7631 17.5198 10.875H16.2298ZM21.7498 18.375H17.2498V17.625H21.7498V18.375ZM21.7498 16.875H17.2498V14.625H21.7498V16.875ZM21.7498 13.875H17.2498V11.625H21.7498V13.875ZM20.2498 8.625H21.1685L22.5748 10.875H18.3223C18.2549 10.6171 18.1201 10.3817 17.9316 10.1932C17.7431 10.0047 17.5077 9.86983 17.2498 9.8025V9H19.8748C19.9742 9 20.0696 8.96049 20.1399 8.89017C20.2103 8.81984 20.2498 8.72446 20.2498 8.625ZM14.2498 5.25H19.4998V8.25H14.2498V5.25ZM11.3923 8.625H13.4998C13.4998 8.72446 13.5393 8.81984 13.6096 8.89017C13.6799 8.96049 13.7753 9 13.8748 9H16.4998V9.8025C16.2418 9.86983 16.0065 10.0047 15.818 10.1932C15.6295 10.3817 15.4946 10.6171 15.4273 10.875H11.111L11.3923 8.625ZM7.12478 15.75H5.06228C4.91309 15.75 4.77002 15.6907 4.66453 15.5852C4.55904 15.4798 4.49977 15.3367 4.49977 15.1875C4.49977 15.0383 4.55904 14.8952 4.66453 14.7898C4.77002 14.6843 4.91309 14.625 5.06228 14.625H7.12478V15.75ZM5.62478 13.875V13.125H9.37478V13.875H5.62478ZM10.4998 15.1875C10.4998 15.3367 10.4405 15.4798 10.335 15.5852C10.2295 15.6907 10.0865 15.75 9.93728 15.75H7.87478V14.625H9.93728C10.0865 14.625 10.2295 14.6843 10.335 14.7898C10.4405 14.8952 10.4998 15.0383 10.4998 15.1875ZM10.826 7.125L10.211 12.045C10.2 12.1365 10.1556 12.2207 10.0865 12.2815C10.0173 12.3424 9.92815 12.3757 9.83603 12.375H5.16353C5.0714 12.3757 4.98225 12.3424 4.91308 12.2815C4.84392 12.2207 4.79958 12.1365 4.78853 12.045L4.17353 7.125H10.826ZM2.83103 8.625H3.60728L3.88853 10.875H1.42477L2.83103 8.625Z" fill="#6E7079"/>
<path d="M18.75 12.375H20.25V13.125H18.75V12.375Z" fill="#6E7079"/>
<path d="M18.75 15.375H20.25V16.125H18.75V15.375Z" fill="#6E7079"/>
</svg>
