<svg width="48" height="48" viewBox="0 0 48 48" fill="none" xmlns="http://www.w3.org/2000/svg">
<rect width="48" height="48" rx="5" fill="#E5E7F4"/>
<path d="M25.875 21.5V20.25H25.25C24.9185 20.25 24.6005 20.3817 24.3661 20.6161C24.1317 20.8505 24 21.1685 24 21.5V26.5C24 26.8315 24.1317 27.1495 24.3661 27.3839C24.6005 27.6183 24.9185 27.75 25.25 27.75H25.875V26.5C25.875 26.1685 26.0067 25.8505 26.2411 25.6161C26.4755 25.3817 26.7935 25.25 27.125 25.25H30.875C31.2065 25.25 31.5245 25.3817 31.7589 25.6161C31.9933 25.8505 32.125 26.1685 32.125 26.5V30.25C32.125 30.5815 31.9933 30.8995 31.7589 31.1339C31.5245 31.3683 31.2065 31.5 30.875 31.5H27.125C26.7935 31.5 26.4755 31.3683 26.2411 31.1339C26.0067 30.8995 25.875 30.5815 25.875 30.25V29H25.25C24.587 29 23.9511 28.7366 23.4822 28.2678C23.0134 27.7989 22.75 27.163 22.75 26.5V24.625H20.25V25.25C20.25 25.5815 20.1183 25.8995 19.8839 26.1339C19.6495 26.3683 19.3315 26.5 19 26.5H16.5C16.1685 26.5 15.8505 26.3683 15.6161 26.1339C15.3817 25.8995 15.25 25.5815 15.25 25.25V22.75C15.25 22.4185 15.3817 22.1005 15.6161 21.8661C15.8505 21.6317 16.1685 21.5 16.5 21.5H19C19.3315 21.5 19.6495 21.6317 19.8839 21.8661C20.1183 22.1005 20.25 22.4185 20.25 22.75V23.375H22.75V21.5C22.75 20.837 23.0134 20.2011 23.4822 19.7322C23.9511 19.2634 24.587 19 25.25 19H25.875V17.75C25.875 17.4185 26.0067 17.1005 26.2411 16.8661C26.4755 16.6317 26.7935 16.5 27.125 16.5H30.875C31.2065 16.5 31.5245 16.6317 31.7589 16.8661C31.9933 17.1005 32.125 17.4185 32.125 17.75V21.5C32.125 21.8315 31.9933 22.1495 31.7589 22.3839C31.5245 22.6183 31.2065 22.75 30.875 22.75H27.125C26.7935 22.75 26.4755 22.6183 26.2411 22.3839C26.0067 22.1495 25.875 21.8315 25.875 21.5Z" fill="#041492"/>
</svg>
