<svg width="79" height="74" viewBox="0 0 79 74" fill="none" xmlns="http://www.w3.org/2000/svg">
<path d="M39.5594 9.2207C39.0347 9.2207 38.4953 9.49735 38.1423 10.0576C25.3269 29.9185 37.2302 46.1623 45.0661 61.3848C45.1969 61.6385 45.4 61.8532 45.6528 62.005C45.9055 62.1567 46.198 62.2397 46.4979 62.2447H65.1068C66.291 62.2447 67.0658 61.0274 66.519 59.9877C66.519 59.9877 41.4914 11.2518 40.8736 10.0368C40.7595 9.798 40.5756 9.59454 40.3434 9.45008C40.1112 9.30561 39.8378 9.22607 39.5594 9.2207ZM39.4368 17.8521C44.6346 27.982 55.2017 48.5599 59.86 57.6339H48.5696C47.851 56.2834 47.1236 54.937 46.3876 53.5948C40.0179 41.9296 33.9571 30.836 39.4393 17.8521H39.4368ZM25.7927 32.2746C25.2362 32.2746 24.7091 32.5651 24.4001 33.1714L10.4766 59.9485C9.93719 61.0182 10.7634 62.2447 11.9672 62.2447H31.3901C32.0031 62.2447 32.5425 61.885 32.7974 61.3571C36.9973 53.0531 34.472 40.4311 27.1363 32.8786C26.9684 32.6961 26.7621 32.5482 26.5305 32.4443C26.2988 32.3403 26.0468 32.2826 25.7903 32.2746H25.7927ZM26.4155 39.7902C29.696 45.2632 30.8238 52.32 29.0781 57.6339H17.138L26.4155 39.7902Z" fill="#041492"/>
</svg>
