<svg width="79" height="74" viewBox="0 0 79 74" fill="none" xmlns="http://www.w3.org/2000/svg">
<path d="M17.7354 57.4011C21.501 60.937 27.5527 60.937 39.6614 60.937C51.77 60.937 57.8243 60.937 61.5848 57.3987C65.3479 53.8652 65.3479 48.1702 65.3479 36.7849C65.3479 25.3996 65.3479 19.707 61.5848 16.1687C57.8269 12.6328 51.77 12.6328 39.6614 12.6328C27.5527 12.6328 21.4984 12.6328 17.7354 16.1687C13.9749 19.7094 13.9749 25.3996 13.9749 36.7849C13.9749 48.1702 13.9749 53.8652 17.7354 57.4011Z" stroke="#041492" stroke-width="3.06888"/>
<path d="M55.0726 28.3319H44.798M55.0726 42.8231H44.798M55.0726 50.0687H44.798M34.5234 28.3319H29.3861M29.3861 28.3319H24.2488M29.3861 28.3319V23.5015M29.3861 28.3319V33.1623M33.2391 42.8231L29.3861 46.4459M29.3861 46.4459L25.5331 50.0687M29.3861 46.4459L25.5331 42.8231M29.3861 46.4459L33.2391 50.0687" stroke="#041492" stroke-width="3.06888" stroke-linecap="round"/>
</svg>
