<svg width="48" height="48" viewBox="0 0 48 48" fill="none" xmlns="http://www.w3.org/2000/svg">
<rect width="48" height="48" rx="5" fill="#E5E7F4"/>
<path d="M31.4134 15.1768H29.6487V16.9415C29.6487 17.2944 29.3546 17.5297 29.0604 17.5297C28.7663 17.5297 28.4722 17.2944 28.4722 16.9415V15.1768H19.0604V16.9415C19.0604 17.2944 18.7663 17.5297 18.4722 17.5297C18.1781 17.5297 17.884 17.2944 17.884 16.9415V15.1768H16.1193C15.2369 15.1768 14.5898 15.9415 14.5898 16.9415V19.0591H33.4134V16.9415C33.4134 15.9415 32.3546 15.1768 31.4134 15.1768ZM14.5898 20.2944V31.0591C14.5898 32.1179 15.2369 32.8238 16.1781 32.8238H31.4722C32.4134 32.8238 33.4722 32.0591 33.4722 31.0591V20.2944H14.5898ZM19.8251 30.1768H18.4134C18.1781 30.1768 17.9428 30.0003 17.9428 29.7062V28.2356C17.9428 28.0003 18.1193 27.765 18.4134 27.765H19.884C20.1193 27.765 20.3545 27.9415 20.3545 28.2356V29.7062C20.2957 30.0003 20.1193 30.1768 19.8251 30.1768ZM19.8251 24.8826H18.4134C18.1781 24.8826 17.9428 24.7062 17.9428 24.4121V22.9415C17.9428 22.7062 18.1193 22.4709 18.4134 22.4709H19.884C20.1193 22.4709 20.3545 22.6473 20.3545 22.9415V24.4121C20.2957 24.7062 20.1193 24.8826 19.8251 24.8826ZM24.531 30.1768H23.0604C22.8251 30.1768 22.5898 30.0003 22.5898 29.7062V28.2356C22.5898 28.0003 22.7663 27.765 23.0604 27.765H24.531C24.7663 27.765 25.0016 27.9415 25.0016 28.2356V29.7062C25.0016 30.0003 24.8251 30.1768 24.531 30.1768ZM24.531 24.8826H23.0604C22.8251 24.8826 22.5898 24.7062 22.5898 24.4121V22.9415C22.5898 22.7062 22.7663 22.4709 23.0604 22.4709H24.531C24.7663 22.4709 25.0016 22.6473 25.0016 22.9415V24.4121C25.0016 24.7062 24.8251 24.8826 24.531 24.8826ZM29.2369 30.1768H27.7663C27.531 30.1768 27.2957 30.0003 27.2957 29.7062V28.2356C27.2957 28.0003 27.4722 27.765 27.7663 27.765H29.2369C29.4722 27.765 29.7075 27.9415 29.7075 28.2356V29.7062C29.7075 30.0003 29.531 30.1768 29.2369 30.1768ZM29.2369 24.8826H27.7663C27.531 24.8826 27.2957 24.7062 27.2957 24.4121V22.9415C27.2957 22.7062 27.4722 22.4709 27.7663 22.4709H29.2369C29.4722 22.4709 29.7075 22.6473 29.7075 22.9415V24.4121C29.7075 24.7062 29.531 24.8826 29.2369 24.8826Z" fill="#041492"/>
</svg>
