<svg width="48" height="49" viewBox="0 0 48 49" fill="none" xmlns="http://www.w3.org/2000/svg">
<rect y="0.5" width="48" height="48" rx="5" fill="#E5E7F4"/>
<g clip-path="url(#clip0_6642_65162)">
<path d="M15.3555 29.389V32.631C15.3555 32.8282 15.5157 32.9925 15.7171 32.9925H18.2235C18.4207 32.9925 18.5851 32.8323 18.5851 32.631V26.9277L16.7648 28.748C16.3786 29.1301 15.8855 29.352 15.3555 29.389Z" fill="#041492"/>
<path d="M19.8359 26.8867V32.631C19.8359 32.8283 19.9962 32.9926 20.1975 32.9926H22.704C22.9012 32.9926 23.0656 32.8324 23.0656 32.631V29.2494C22.4944 29.237 21.9603 29.011 21.5576 28.6084L19.8359 26.8867Z" fill="#041492"/>
<path d="M24.3125 28.8922V32.6314C24.3125 32.8286 24.4727 32.9929 24.6741 32.9929H27.1805C27.3778 32.9929 27.5421 32.8327 27.5421 32.6314V25.7324L24.67 28.6046C24.559 28.7155 24.4399 28.81 24.3125 28.8922Z" fill="#041492"/>
<path d="M31.7802 21.4922L28.793 24.4794V32.6316C28.793 32.8288 28.9532 32.9931 29.1546 32.9931H31.661C31.8582 32.9931 32.0226 32.8329 32.0226 32.6316V21.7182C31.9404 21.6483 31.8788 21.5867 31.8336 21.5456L31.7802 21.4922Z" fill="#041492"/>
<path d="M33.8298 16.199C33.7106 16.0716 33.5299 16.0059 33.2998 16.0059C33.2792 16.0059 33.2546 16.0059 33.234 16.0059C32.0671 16.0593 30.9042 16.1168 29.7373 16.1702C29.5812 16.1784 29.3675 16.1867 29.199 16.3551C29.1456 16.4085 29.1045 16.4702 29.0716 16.5441C28.8991 16.918 29.1415 17.1605 29.2565 17.2755L29.5483 17.5714C29.7496 17.7768 29.9551 17.9823 30.1605 18.1836L23.1095 25.2387L19.9415 22.0707C19.7525 21.8817 19.4978 21.7748 19.2266 21.7748C18.9554 21.7748 18.7048 21.8817 18.5157 22.0707L14.2958 26.2865C13.9014 26.6809 13.9014 27.3178 14.2958 27.7123L14.4849 27.9013C14.6739 28.0903 14.9286 28.1971 15.1998 28.1971C15.471 28.1971 15.7217 28.0903 15.9107 27.9013L19.2266 24.5854L22.3946 27.7534C22.5836 27.9424 22.8384 28.0492 23.1095 28.0492C23.3807 28.0492 23.6314 27.9424 23.8245 27.7534L31.7794 19.7984L32.6793 20.6942C32.7861 20.801 32.9341 20.9489 33.16 20.9489C33.2546 20.9489 33.3491 20.9243 33.4477 20.8709C33.5134 20.8339 33.5709 20.7928 33.6203 20.7435C33.7969 20.5668 33.8298 20.3408 33.838 20.1641C33.8709 19.4081 33.9079 18.652 33.9449 17.8919L33.9983 16.7537C34.0106 16.5154 33.9572 16.3305 33.8298 16.199Z" fill="#041492"/>
</g>
<defs>
<clipPath id="clip0_6642_65162">
<rect width="20" height="20" fill="white" transform="translate(14 14.5)"/>
</clipPath>
</defs>
</svg>
