<svg width="48" height="48" viewBox="0 0 48 48" fill="none" xmlns="http://www.w3.org/2000/svg">
<rect width="48" height="48" rx="5" fill="#E5E7F4"/>
<path d="M32.7367 24.4961L31.4867 18.566C31.2453 17.2723 30.3156 16.5 29 16.5H19C18.3438 16.5 17.7891 16.6832 17.3555 17.0445C16.9219 17.4059 16.6379 17.916 16.5125 18.5637L15.2625 24.4961C15.2541 24.5385 15.2499 24.5817 15.25 24.625V29C15.25 29.663 15.5134 30.2989 15.9822 30.7678C16.4511 31.2366 17.087 31.5 17.75 31.5H30.25C30.913 31.5 31.5489 31.2366 32.0178 30.7678C32.4866 30.2989 32.75 29.663 32.75 29V24.625C32.7499 24.5817 32.7454 24.5385 32.7367 24.4961ZM17.7367 18.8164V18.8055C17.8754 18.0855 18.2762 17.7508 18.998 17.7508H29C29.727 17.7508 30.1277 18.0848 30.2605 18.802C30.2605 18.807 30.2625 18.8121 30.2633 18.8172L31.3152 23.8125C31.32 23.8353 31.3196 23.8588 31.3141 23.8814C31.3087 23.904 31.2982 23.9251 31.2835 23.9431C31.2689 23.9612 31.2503 23.9757 31.2293 23.9857C31.2083 23.9956 31.1854 24.0008 31.1621 24.0008H26.5C26.3352 23.9999 26.1768 24.0646 26.0596 24.1804C25.9424 24.2963 25.876 24.454 25.875 24.6187C25.875 25.116 25.6775 25.5929 25.3258 25.9446C24.9742 26.2962 24.4973 26.4937 24 26.4937C23.5027 26.4937 23.0258 26.2962 22.6742 25.9446C22.3225 25.5929 22.125 25.116 22.125 24.6187C22.1246 24.5371 22.1081 24.4563 22.0765 24.381C22.0448 24.3057 21.9987 24.2374 21.9407 24.1799C21.8826 24.1225 21.8138 24.077 21.7382 24.0461C21.6626 24.0153 21.5817 23.9996 21.5 24H16.8379C16.8146 24 16.7917 23.9949 16.7707 23.9849C16.7497 23.9749 16.7312 23.9604 16.7165 23.9423C16.7018 23.9243 16.6913 23.9032 16.6859 23.8806C16.6804 23.858 16.68 23.8345 16.6848 23.8117L17.7367 18.8164Z" fill="#041492"/>
<path d="M28.375 20.25H19.625C19.4592 20.25 19.3003 20.1842 19.1831 20.0669C19.0658 19.9497 19 19.7908 19 19.625C19 19.4592 19.0658 19.3003 19.1831 19.1831C19.3003 19.0658 19.4592 19 19.625 19H28.375C28.5408 19 28.6997 19.0658 28.8169 19.1831C28.9342 19.3003 29 19.4592 29 19.625C29 19.7908 28.9342 19.9497 28.8169 20.0669C28.6997 20.1842 28.5408 20.25 28.375 20.25ZM29 22.75H19C18.8342 22.75 18.6753 22.6842 18.5581 22.5669C18.4408 22.4497 18.375 22.2908 18.375 22.125C18.375 21.9592 18.4408 21.8003 18.5581 21.6831C18.6753 21.5658 18.8342 21.5 19 21.5H29C29.1658 21.5 29.3247 21.5658 29.4419 21.6831C29.5592 21.8003 29.625 21.9592 29.625 22.125C29.625 22.2908 29.5592 22.4497 29.4419 22.5669C29.3247 22.6842 29.1658 22.75 29 22.75Z" fill="#041492"/>
</svg>
