<svg width="48" height="48" viewBox="0 0 48 48" fill="none" xmlns="http://www.w3.org/2000/svg">
<rect width="48" height="48" rx="5" fill="#E5E7F4"/>
<g clip-path="url(#clip0_6495_15987)">
<path d="M29.637 18.363L31.313 18.698C31.403 18.716 31.477 18.782 31.503 18.871C31.5161 18.9142 31.5173 18.9602 31.5064 19.0041C31.4955 19.0479 31.4729 19.088 31.441 19.12L30.068 20.494C29.9037 20.658 29.6811 20.75 29.449 20.75H28.31L25.45 23.611C25.5046 23.817 25.5146 24.0323 25.4794 24.2425C25.4443 24.4527 25.3647 24.653 25.2461 24.8301C25.1274 25.0071 24.9724 25.1568 24.7914 25.2693C24.6103 25.3817 24.4074 25.4543 24.1961 25.4822C23.9848 25.51 23.77 25.4925 23.566 25.4309C23.362 25.3692 23.1734 25.2648 23.013 25.1245C22.8525 24.9843 22.7237 24.8115 22.6353 24.6176C22.5468 24.4236 22.5007 24.2131 22.5 24C22.5002 23.7699 22.5532 23.5429 22.6551 23.3366C22.7569 23.1302 22.9049 22.9501 23.0874 22.81C23.27 22.67 23.4824 22.5738 23.708 22.5288C23.9337 22.4839 24.1667 22.4915 24.389 22.551L27.25 19.689V18.552C27.25 18.32 27.342 18.097 27.506 17.933L28.88 16.559C28.912 16.5271 28.9521 16.5045 28.9959 16.4936C29.0398 16.4827 29.0858 16.4839 29.129 16.497C29.218 16.523 29.284 16.597 29.302 16.687L29.637 18.363Z" fill="#041492"/>
<path d="M17.9999 24C18.001 24.858 18.186 25.7058 18.5425 26.4861C18.899 27.2665 19.4188 27.9614 20.0667 28.5238C20.7146 29.0862 21.4755 29.5032 22.2983 29.7465C23.121 29.9898 23.9864 30.0539 24.836 29.9343C25.6855 29.8148 26.4996 29.5144 27.2233 29.0535C27.9469 28.5926 28.5633 27.9818 29.0308 27.2625C29.4983 26.5431 29.8062 25.7318 29.9335 24.8833C30.0608 24.0349 30.0047 23.169 29.7689 22.344C29.7358 22.2477 29.7227 22.1456 29.7303 22.0439C29.7379 21.9423 29.7662 21.8433 29.8133 21.753C29.8604 21.6626 29.9254 21.5828 30.0043 21.5183C30.0832 21.4539 30.1745 21.4062 30.2724 21.3781C30.3704 21.3501 30.4731 21.3422 30.5741 21.3551C30.6752 21.368 30.7726 21.4013 30.8604 21.453C30.9482 21.5048 31.0246 21.5738 31.0848 21.656C31.1451 21.7382 31.188 21.8318 31.2109 21.931C31.6675 23.5286 31.5808 25.2325 30.9644 26.7754C30.348 28.3183 29.2369 29.613 27.8054 30.4563C26.3738 31.2995 24.7028 31.6437 23.0545 31.4348C21.4062 31.2259 19.8739 30.4758 18.6979 29.302C17.5233 28.1264 16.7723 26.5939 16.5629 24.9453C16.3536 23.2966 16.6977 21.6251 17.5412 20.1931C18.3847 18.7612 19.6799 17.6499 21.2233 17.0338C22.7668 16.4177 24.4712 16.3316 26.0689 16.789C26.2592 16.8447 26.4197 16.9733 26.5154 17.1469C26.611 17.3205 26.6341 17.5249 26.5795 17.7154C26.5249 17.906 26.3972 18.0672 26.2241 18.1638C26.0511 18.2604 25.8468 18.2846 25.6559 18.231C24.7625 17.9747 23.8218 17.9294 22.9079 18.0987C21.9939 18.268 21.1318 18.6473 20.3895 19.2066C19.6472 19.766 19.045 20.4901 18.6303 21.322C18.2156 22.1538 17.9998 23.0706 17.9999 24Z" fill="#041492"/>
<path d="M21 24C21 24.5466 21.1493 25.0828 21.4318 25.5508C21.7142 26.0187 22.119 26.4007 22.6026 26.6555C23.0861 26.9103 23.6301 27.0283 24.1758 26.9966C24.7214 26.965 25.2481 26.785 25.699 26.476C26.1498 26.1662 26.5073 25.7391 26.7329 25.2408C26.9585 24.7426 27.0436 24.1921 26.979 23.649C26.9615 23.5172 26.9795 23.3831 27.031 23.2606C27.0826 23.138 27.1659 23.0314 27.2723 22.9518C27.3788 22.8721 27.5045 22.8223 27.6367 22.8074C27.7688 22.7925 27.9025 22.813 28.024 22.867C28.1455 22.9202 28.2507 23.0047 28.3289 23.1119C28.407 23.2191 28.4554 23.345 28.469 23.477C28.5776 24.4051 28.3947 25.344 27.9455 26.1634C27.4963 26.9828 26.8032 27.642 25.9623 28.0496C25.1215 28.4572 24.1746 28.5929 23.2531 28.4379C22.3316 28.2829 21.4812 27.8449 20.82 27.1846C20.1587 26.5244 19.7194 25.6747 19.563 24.7534C19.4066 23.8322 19.5409 22.8851 19.9472 22.0436C20.3535 21.2021 21.0117 20.508 21.8304 20.0576C22.6491 19.6071 23.5877 19.4227 24.516 19.53C24.6154 19.5392 24.7119 19.5682 24.8 19.6152C24.888 19.6622 24.9658 19.7263 25.0288 19.8038C25.0917 19.8813 25.1386 19.9706 25.1666 20.0664C25.1946 20.1622 25.2032 20.2626 25.1919 20.3618C25.1805 20.461 25.1495 20.5569 25.1007 20.6439C25.0518 20.731 24.9861 20.8074 24.9073 20.8687C24.8285 20.93 24.7383 20.975 24.6419 21.0009C24.5455 21.0269 24.4449 21.0334 24.346 21.02C23.9256 20.9712 23.4997 21.0119 23.0962 21.1393C22.6927 21.2668 22.3207 21.4782 22.0047 21.7597C21.6887 22.0411 21.4358 22.3862 21.2627 22.7723C21.0895 23.1584 21 23.5768 21 24Z" fill="#041492"/>
</g>
<defs>
<clipPath id="clip0_6495_15987">
<rect width="16" height="16" fill="white" transform="translate(16 16)"/>
</clipPath>
</defs>
</svg>
