<svg width="24" height="24" viewBox="0 0 24 24" fill="none" xmlns="http://www.w3.org/2000/svg">
<g clip-path="url(#clip0_4523_19886)">
<path d="M22.0609 0H14.9514C13.8801 0 13.0117 0.868428 13.0117 1.93969V9.04922C13.0117 10.1205 13.8801 10.9889 14.9514 10.9889H22.0609C23.1322 10.9889 24.0006 10.1205 24.0006 9.04922V1.93969C24.0006 0.868428 23.1322 0 22.0609 0Z" fill="white"/>
<path d="M9.04922 0H1.93969C0.868428 0 0 0.868428 0 1.93969V9.04922C0 10.1205 0.868428 10.9889 1.93969 10.9889H9.04922C10.1205 10.9889 10.9889 10.1205 10.9889 9.04922V1.93969C10.9889 0.868428 10.1205 0 9.04922 0Z" fill="white"/>
<path d="M22.0609 13.011H14.9514C13.8801 13.011 13.0117 13.8794 13.0117 14.9507V22.0602C13.0117 23.1315 13.8801 23.9999 14.9514 23.9999H22.0609C23.1322 23.9999 24.0006 23.1315 24.0006 22.0602V14.9507C24.0006 13.8794 23.1322 13.011 22.0609 13.011Z" fill="white"/>
<path d="M9.04922 13.011H1.93969C0.868428 13.011 0 13.8794 0 14.9507V22.0602C0 23.1315 0.868428 23.9999 1.93969 23.9999H9.04922C10.1205 23.9999 10.9889 23.1315 10.9889 22.0602V14.9507C10.9889 13.8794 10.1205 13.011 9.04922 13.011Z" fill="white"/>
</g>
<defs>
<clipPath id="clip0_4523_19886">
<rect width="24" height="24" fill="white"/>
</clipPath>
</defs>
</svg>
