<svg width="79" height="74" viewBox="0 0 79 74" fill="none" xmlns="http://www.w3.org/2000/svg">
<path d="M46.6902 13.4204V33.3043L64.3128 23.3624L46.6902 13.4204Z" fill="#041492"/>
<path d="M60.7891 33.3048V46.5607H18.4947V20.0488H36.1174V16.7349H18.4947C17.56 16.7349 16.6635 17.084 16.0025 17.7055C15.3415 18.327 14.9702 19.1699 14.9702 20.0488V46.5607C14.9702 47.4396 15.3415 48.2825 16.0025 48.904C16.6635 49.5255 17.56 49.8747 18.4947 49.8747H32.5928V56.5026H25.5438V59.8166H53.74V56.5026H46.691V49.8747H60.7891C61.7238 49.8747 62.6203 49.5255 63.2813 48.904C63.9423 48.2825 64.3136 47.4396 64.3136 46.5607V33.3048H60.7891ZM43.1664 56.5026H36.1174V49.8747H43.1664V56.5026Z" fill="#041492"/>
</svg>
