<svg width="52" height="53" viewBox="0 0 52 53" fill="none" xmlns="http://www.w3.org/2000/svg">
<rect x="-0.5" y="-0.5" width="38.8829" height="38.7517" rx="19.3759" transform="matrix(0 -1 -1 0 44.8759 38.8829)" stroke="black" stroke-opacity="0.17"/>
<path d="M34.5316 23.6636C34.8843 23.3617 34.8843 22.8864 34.5316 22.5845C34.1907 22.2927 33.6234 22.2927 33.2833 22.5845L26.8895 28.0565L26.8895 9.9995C26.8895 9.57857 26.4986 9.23313 26.0067 9.23313C25.5149 9.23313 25.1113 9.57857 25.1113 9.9995L25.1113 28.0565L18.7294 22.5845C18.3766 22.2927 17.8085 22.2927 17.4684 22.5845C17.1156 22.8864 17.1156 23.3617 17.4684 23.6636L25.3758 30.4311C25.7167 30.7228 26.284 30.7228 26.6241 30.4311L34.5316 23.6636Z" fill="#F8931F"/>
<path d="M1.08 51.8829V44.0109H3.048C4.264 44.0109 5.188 44.3509 5.82 45.0309C6.452 45.7029 6.768 46.6629 6.768 47.9109C6.768 49.1669 6.452 50.1429 5.82 50.8389C5.196 51.5349 4.288 51.8829 3.096 51.8829H1.08ZM2.076 51.0669H2.976C3.896 51.0669 4.584 50.7909 5.04 50.2389C5.504 49.6789 5.736 48.9029 5.736 47.9109C5.736 46.9189 5.504 46.1589 5.04 45.6309C4.584 45.0949 3.896 44.8269 2.976 44.8269H2.076V51.0669ZM10.6348 52.0269C10.1628 52.0269 9.71881 51.9069 9.30281 51.6669C8.89481 51.4269 8.56281 51.0789 8.30681 50.6229C8.05881 50.1669 7.93481 49.6189 7.93481 48.9789C7.93481 48.3229 8.05881 47.7669 8.30681 47.3109C8.56281 46.8549 8.89481 46.5069 9.30281 46.2669C9.71881 46.0269 10.1628 45.9069 10.6348 45.9069C11.1148 45.9069 11.5588 46.0269 11.9668 46.2669C12.3748 46.5069 12.7028 46.8549 12.9508 47.3109C13.2068 47.7669 13.3348 48.3229 13.3348 48.9789C13.3348 49.6189 13.2068 50.1669 12.9508 50.6229C12.7028 51.0789 12.3748 51.4269 11.9668 51.6669C11.5588 51.9069 11.1148 52.0269 10.6348 52.0269ZM10.6348 51.2109C11.1388 51.2109 11.5428 51.0069 11.8468 50.5989C12.1588 50.1829 12.3148 49.6429 12.3148 48.9789C12.3148 48.3069 12.1588 47.7629 11.8468 47.3469C11.5428 46.9309 11.1388 46.7229 10.6348 46.7229C10.1388 46.7229 9.73481 46.9309 9.42281 47.3469C9.11081 47.7629 8.95481 48.3069 8.95481 48.9789C8.95481 49.6429 9.11081 50.1829 9.42281 50.5989C9.73481 51.0069 10.1388 51.2109 10.6348 51.2109ZM15.7478 51.8829L14.1278 46.0509H15.1358L15.9998 49.4229C16.0638 49.6949 16.1238 49.9669 16.1798 50.2389C16.2358 50.5029 16.2918 50.7709 16.3478 51.0429H16.3958C16.4598 50.7709 16.5238 50.5029 16.5878 50.2389C16.6518 49.9669 16.7198 49.6949 16.7918 49.4229L17.6918 46.0509H18.6518L19.5638 49.4229C19.6358 49.6949 19.7038 49.9669 19.7678 50.2389C19.8398 50.5029 19.9078 50.7709 19.9718 51.0429H20.0198C20.0838 50.7709 20.1438 50.5029 20.1998 50.2389C20.2638 49.9669 20.3238 49.6949 20.3798 49.4229L21.2318 46.0509H22.1678L20.6078 51.8829H19.4078L18.5678 48.7509C18.4958 48.4709 18.4278 48.1949 18.3638 47.9229C18.3078 47.6509 18.2438 47.3669 18.1718 47.0709H18.1238C18.0598 47.3669 17.9958 47.6549 17.9318 47.9349C17.8678 48.2069 17.7958 48.4829 17.7158 48.7629L16.8998 51.8829H15.7478ZM23.4371 51.8829V46.0509H24.2531L24.3371 46.8909H24.3731C24.6531 46.6109 24.9491 46.3789 25.2611 46.1949C25.5731 46.0029 25.9291 45.9069 26.3291 45.9069C26.9451 45.9069 27.3931 46.1029 27.6731 46.4949C27.9611 46.8789 28.1051 47.4429 28.1051 48.1869V51.8829H27.1211V48.3189C27.1211 47.7749 27.0331 47.3789 26.8571 47.1309C26.6811 46.8829 26.4011 46.7589 26.0171 46.7589C25.7211 46.7589 25.4531 46.8349 25.2131 46.9869C24.9811 47.1389 24.7171 47.3629 24.4211 47.6589V51.8829H23.4371ZM31.0436 52.0269C30.6756 52.0269 30.4076 51.9149 30.2396 51.6909C30.0796 51.4589 29.9996 51.1309 29.9996 50.7069V43.3389H30.9836V50.7789C30.9836 50.9309 31.0116 51.0429 31.0676 51.1149C31.1236 51.1789 31.1876 51.2109 31.2596 51.2109C31.2916 51.2109 31.3196 51.2109 31.3436 51.2109C31.3756 51.2029 31.4196 51.1949 31.4756 51.1869L31.6076 51.9309C31.5436 51.9629 31.4676 51.9869 31.3796 52.0029C31.2916 52.0189 31.1796 52.0269 31.0436 52.0269ZM35.3262 52.0269C34.8542 52.0269 34.4102 51.9069 33.9942 51.6669C33.5862 51.4269 33.2542 51.0789 32.9982 50.6229C32.7502 50.1669 32.6262 49.6189 32.6262 48.9789C32.6262 48.3229 32.7502 47.7669 32.9982 47.3109C33.2542 46.8549 33.5862 46.5069 33.9942 46.2669C34.4102 46.0269 34.8542 45.9069 35.3262 45.9069C35.8062 45.9069 36.2502 46.0269 36.6582 46.2669C37.0662 46.5069 37.3942 46.8549 37.6422 47.3109C37.8982 47.7669 38.0262 48.3229 38.0262 48.9789C38.0262 49.6189 37.8982 50.1669 37.6422 50.6229C37.3942 51.0789 37.0662 51.4269 36.6582 51.6669C36.2502 51.9069 35.8062 52.0269 35.3262 52.0269ZM35.3262 51.2109C35.8302 51.2109 36.2342 51.0069 36.5382 50.5989C36.8502 50.1829 37.0062 49.6429 37.0062 48.9789C37.0062 48.3069 36.8502 47.7629 36.5382 47.3469C36.2342 46.9309 35.8302 46.7229 35.3262 46.7229C34.8302 46.7229 34.4262 46.9309 34.1142 47.3469C33.8022 47.7629 33.6462 48.3069 33.6462 48.9789C33.6462 49.6429 33.8022 50.1829 34.1142 50.5989C34.4262 51.0069 34.8302 51.2109 35.3262 51.2109ZM40.7421 52.0269C40.2541 52.0269 39.8461 51.8829 39.5181 51.5949C39.1981 51.2989 39.0381 50.8909 39.0381 50.3709C39.0381 49.7309 39.3221 49.2429 39.8901 48.9069C40.4661 48.5629 41.3741 48.3229 42.6141 48.1869C42.6141 47.9389 42.5781 47.7029 42.5061 47.4789C42.4421 47.2549 42.3221 47.0749 42.1461 46.9389C41.9781 46.7949 41.7341 46.7229 41.4141 46.7229C41.0781 46.7229 40.7621 46.7869 40.4661 46.9149C40.1701 47.0429 39.9061 47.1869 39.6741 47.3469L39.2901 46.6629C39.5621 46.4869 39.8941 46.3189 40.2861 46.1589C40.6861 45.9909 41.1181 45.9069 41.5821 45.9069C42.2941 45.9069 42.8101 46.1269 43.1301 46.5669C43.4501 46.9989 43.6101 47.5789 43.6101 48.3069V51.8829H42.7941L42.7101 51.1869H42.6741C42.4021 51.4109 42.1021 51.6069 41.7741 51.7749C41.4541 51.9429 41.1101 52.0269 40.7421 52.0269ZM41.0301 51.2349C41.3101 51.2349 41.5741 51.1669 41.8221 51.0309C42.0701 50.8949 42.3341 50.7029 42.6141 50.4549V48.8349C41.6461 48.9549 40.9661 49.1349 40.5741 49.3749C40.1901 49.6149 39.9981 49.9229 39.9981 50.2989C39.9981 50.6269 40.0981 50.8669 40.2981 51.0189C40.4981 51.1629 40.7421 51.2349 41.0301 51.2349ZM47.4369 52.0269C46.7089 52.0269 46.1249 51.7629 45.6849 51.2349C45.2449 50.6989 45.0249 49.9469 45.0249 48.9789C45.0249 48.3469 45.1409 47.8029 45.3729 47.3469C45.6129 46.8829 45.9249 46.5269 46.3089 46.2789C46.7009 46.0309 47.1169 45.9069 47.5569 45.9069C47.8929 45.9069 48.1849 45.9669 48.4329 46.0869C48.6809 46.2069 48.9329 46.3709 49.1889 46.5789L49.1409 45.5829V43.3389H50.1369V51.8829H49.3209L49.2369 51.1989H49.2009C48.9769 51.4229 48.7129 51.6189 48.4089 51.7869C48.1049 51.9469 47.7809 52.0269 47.4369 52.0269ZM47.6529 51.1989C48.1649 51.1989 48.6609 50.9309 49.1409 50.3949V47.3469C48.8929 47.1229 48.6529 46.9669 48.4209 46.8789C48.1969 46.7829 47.9649 46.7349 47.7249 46.7349C47.4129 46.7349 47.1289 46.8309 46.8729 47.0229C46.6249 47.2069 46.4249 47.4669 46.2729 47.8029C46.1209 48.1309 46.0449 48.5189 46.0449 48.9669C46.0449 49.6629 46.1849 50.2109 46.4649 50.6109C46.7449 51.0029 47.1409 51.1989 47.6529 51.1989Z" fill="#D2D2D2"/>
</svg>
