<svg width="48" height="48" viewBox="0 0 48 48" fill="none" xmlns="http://www.w3.org/2000/svg">
<rect width="48" height="48" rx="5" fill="#E5E7F4"/>
<g clip-path="url(#clip0_6495_15993)">
<path d="M18.9988 17.3333H26.4986C26.7286 17.3333 26.9153 17.1466 26.9153 16.9166V16.0833C26.9153 15.3941 26.3553 14.8333 25.6653 14.8333H24.187C23.892 14.325 23.3462 14 22.7487 14C22.1512 14 21.6054 14.325 21.3104 14.8333H19.8321C19.1438 14.8333 18.5822 15.3941 18.5822 16.0833V16.9166C18.5821 17.1466 18.7688 17.3333 18.9988 17.3333Z" fill="#041492"/>
<path d="M28.1654 24.833C25.6388 24.833 23.5822 26.8888 23.5822 29.4162C23.5822 31.9437 25.6396 33.9995 28.1654 33.9995C30.6912 33.9995 32.7486 31.9437 32.7486 29.4163C32.7486 26.8888 30.692 24.833 28.1654 24.833ZM31.0001 30.5H27.5001C27.5001 30.5 27.1068 30.5 27.0001 30.5C26.8934 30.5 25.3704 30.5 25.3704 30.5V29.7112V29H26.0001H28.5001H30.0001H31.0001V30.5Z" fill="#041492"/>
<path d="M24.3199 33.2267C23.3075 32.205 22.75 30.8551 22.75 29.4168C22.75 26.4301 25.1799 24.0002 28.1665 24.0002C28.6865 24.0002 29.2073 24.0769 29.714 24.2277C29.8407 24.2669 29.9773 24.2419 30.0815 24.1627C30.1873 24.0844 30.249 23.9602 30.249 23.8285V16.917C30.2498 16.2278 29.6882 15.667 28.9999 15.667H28.1665C27.9366 15.667 27.7499 15.8537 27.7499 16.0837V16.917C27.7499 17.6062 27.1882 18.167 26.4999 18.167H19C18.3101 18.167 17.7501 17.6062 17.7501 16.917V16.0837C17.7501 15.8537 17.5634 15.667 17.3334 15.667H16.5001C15.8101 15.667 15.2501 16.2278 15.2501 16.917V32.75C15.2501 33.4392 15.8101 34 16.5001 34H24.0874C24.0933 34 24.0999 34.0008 24.1041 34C24.3341 34 24.5208 33.8133 24.5208 33.5833C24.5208 33.4317 24.4399 33.3 24.3199 33.2267Z" fill="#041492"/>
</g>
<defs>
<clipPath id="clip0_6495_15993">
<rect width="20" height="20" fill="white" transform="translate(14 14)"/>
</clipPath>
</defs>
</svg>
