<svg width="79" height="74" viewBox="0 0 79 74" fill="none" xmlns="http://www.w3.org/2000/svg">
<g clip-path="url(#clip0_6625_40005)">
<path d="M23.5317 36.6181V26.6572C23.5632 24.6992 24.0053 22.7664 24.8326 20.9693C25.6599 19.1722 26.8561 17.5463 28.3529 16.1847C29.8496 14.8231 31.6174 13.7526 33.5549 13.0345C35.4924 12.3164 37.5616 11.9648 39.6439 12C41.7261 11.9648 43.7953 12.3164 45.7328 13.0345C47.6703 13.7526 49.4381 14.8231 50.9348 16.1847C52.4316 17.5463 53.6279 19.1722 54.4552 20.9693C55.2825 22.7664 55.7245 24.6992 55.756 26.6572V36.6181M47.6999 56.502C49.8365 56.502 51.8856 55.7039 53.3964 54.2834C54.9072 52.8628 55.756 50.9361 55.756 48.9272V40.4055M47.6999 56.502C47.6999 57.7576 47.1695 58.9618 46.2252 59.8496C45.2809 60.7375 44.0003 61.2362 42.6649 61.2362H36.6228C35.2875 61.2362 34.0068 60.7375 33.0625 59.8496C32.1183 58.9618 31.5878 57.7576 31.5878 56.502C31.5878 55.2464 32.1183 54.0422 33.0625 53.1544C34.0068 52.2665 35.2875 51.7677 36.6228 51.7677H42.6649C44.0003 51.7677 45.2809 52.2665 46.2252 53.1544C47.1695 54.0422 47.6999 55.2464 47.6999 56.502ZM17.4897 30.937H21.5177C22.0519 30.937 22.5642 31.1365 22.9419 31.4916C23.3196 31.8468 23.5317 32.3284 23.5317 32.8307V44.1929C23.5317 44.6952 23.3196 45.1768 22.9419 45.532C22.5642 45.8871 22.0519 46.0866 21.5177 46.0866H17.4897C16.4214 46.0866 15.3969 45.6876 14.6415 44.9773C13.8861 44.267 13.4617 43.3037 13.4617 42.2992V34.7244C13.4617 33.7199 13.8861 32.7566 14.6415 32.0463C15.3969 31.336 16.4214 30.937 17.4897 30.937ZM61.798 46.0866H57.77C57.2359 46.0866 56.7236 45.8871 56.3459 45.532C55.9682 45.1768 55.756 44.6952 55.756 44.1929V32.8307C55.756 32.3284 55.9682 31.8468 56.3459 31.4916C56.7236 31.1365 57.2359 30.937 57.77 30.937H61.798C62.8663 30.937 63.8909 31.336 64.6463 32.0463C65.4017 32.7566 65.8261 33.7199 65.8261 34.7244V42.2992C65.8261 43.3037 65.4017 44.267 64.6463 44.9773C63.8909 45.6876 62.8663 46.0866 61.798 46.0866Z" stroke="#041492" stroke-width="3.36872" stroke-linecap="round" stroke-linejoin="round"/>
</g>
<defs>
<clipPath id="clip0_6625_40005">
<rect width="56.3924" height="53.0237" fill="white" transform="translate(11.4487 10.1057)"/>
</clipPath>
</defs>
</svg>
