<svg width="48" height="49" viewBox="0 0 48 49" fill="none" xmlns="http://www.w3.org/2000/svg">
<rect x="0.000244141" y="0.5" width="48" height="48" rx="24" fill="#E5E7F4"/>
<path d="M20.5627 25.75C20.5627 27.1312 19.444 28.25 18.0627 28.25C16.6815 28.25 15.5627 27.1312 15.5627 25.75C15.5627 24.3687 16.6815 23.25 18.0627 23.25C19.444 23.25 20.5627 24.3687 20.5627 25.75Z" fill="#041492"/>
<path fill-rule="evenodd" clip-rule="evenodd" d="M18.0627 27C18.3943 27 18.7122 26.8683 18.9466 26.6339C19.181 26.3995 19.3127 26.0815 19.3127 25.75C19.3127 25.4185 19.181 25.1005 18.9466 24.8661C18.7122 24.6317 18.3943 24.5 18.0627 24.5C17.7312 24.5 17.4133 24.6317 17.1789 24.8661C16.9444 25.1005 16.8127 25.4185 16.8127 25.75C16.8127 26.0815 16.9444 26.3995 17.1789 26.6339C17.4133 26.8683 17.7312 27 18.0627 27ZM18.0627 28.25C19.444 28.25 20.5627 27.1312 20.5627 25.75C20.5627 24.3687 19.444 23.25 18.0627 23.25C16.6815 23.25 15.5627 24.3687 15.5627 25.75C15.5627 27.1312 16.6815 28.25 18.0627 28.25Z" fill="#041492"/>
<path d="M12.7502 32.3406C12.7502 30.4519 16.2896 29.5 18.0627 29.5C19.8359 29.5 23.3752 30.4519 23.3752 32.3406V35.75H12.7502V32.3406Z" fill="#041492"/>
<path fill-rule="evenodd" clip-rule="evenodd" d="M14.209 31.9894C14.0115 32.1844 14.0002 32.2963 14.0002 32.3413V34.5H22.1252V32.3406C22.1252 32.2969 22.114 32.1844 21.9165 31.9894C21.7077 31.7838 21.3634 31.5631 20.8915 31.3613C19.9415 30.9544 18.7815 30.75 18.0627 30.75C17.344 30.75 16.1834 30.9544 15.234 31.3613C14.7621 31.5631 14.4177 31.7838 14.209 31.9894ZM18.0627 29.5C16.2896 29.5 12.7502 30.4519 12.7502 32.3406V35.75H23.3752V32.3406C23.3752 30.4519 19.8359 29.5 18.0627 29.5Z" fill="#041492"/>
<path d="M32.4377 25.75C32.4377 27.1312 31.319 28.25 29.9377 28.25C28.5565 28.25 27.4377 27.1312 27.4377 25.75C27.4377 24.3687 28.5565 23.25 29.9377 23.25C31.319 23.25 32.4377 24.3687 32.4377 25.75Z" fill="#041492"/>
<path fill-rule="evenodd" clip-rule="evenodd" d="M29.9377 27C30.2693 27 30.5872 26.8683 30.8216 26.6339C31.056 26.3995 31.1877 26.0815 31.1877 25.75C31.1877 25.4185 31.056 25.1005 30.8216 24.8661C30.5872 24.6317 30.2693 24.5 29.9377 24.5C29.6062 24.5 29.2883 24.6317 29.0539 24.8661C28.8194 25.1005 28.6877 25.4185 28.6877 25.75C28.6877 26.0815 28.8194 26.3995 29.0539 26.6339C29.2883 26.8683 29.6062 27 29.9377 27ZM29.9377 28.25C31.319 28.25 32.4377 27.1312 32.4377 25.75C32.4377 24.3687 31.319 23.25 29.9377 23.25C28.5565 23.25 27.4377 24.3687 27.4377 25.75C27.4377 27.1312 28.5565 28.25 29.9377 28.25Z" fill="#041492"/>
<path d="M26.5002 24.5C26.5002 25.8812 25.3815 27 24.0002 27C22.619 27 21.5002 25.8812 21.5002 24.5C21.5002 23.1187 22.619 22 24.0002 22C25.3815 22 26.5002 23.1187 26.5002 24.5Z" fill="#041492"/>
<path fill-rule="evenodd" clip-rule="evenodd" d="M24.0002 25.75C24.3318 25.75 24.6497 25.6183 24.8841 25.3839C25.1185 25.1495 25.2502 24.8315 25.2502 24.5C25.2502 24.1685 25.1185 23.8505 24.8841 23.6161C24.6497 23.3817 24.3318 23.25 24.0002 23.25C23.6687 23.25 23.3508 23.3817 23.1164 23.6161C22.8819 23.8505 22.7502 24.1685 22.7502 24.5C22.7502 24.8315 22.8819 25.1495 23.1164 25.3839C23.3508 25.6183 23.6687 25.75 24.0002 25.75ZM24.0002 27C25.3815 27 26.5002 25.8812 26.5002 24.5C26.5002 23.1187 25.3815 22 24.0002 22C22.619 22 21.5002 23.1187 21.5002 24.5C21.5002 25.8812 22.619 27 24.0002 27Z" fill="#041492"/>
<path d="M23.3764 17.5206C23.3764 16.7195 23.0581 15.9512 22.4916 15.3847C21.9252 14.8182 21.1569 14.5 20.3557 14.5H18.3751C17.5556 14.4987 16.7683 14.8195 16.1831 15.3932C15.598 15.967 15.2617 16.7478 15.2469 17.5672C15.232 18.3866 15.5398 19.179 16.1038 19.7736C16.6678 20.3682 17.4429 20.7173 18.262 20.7456L18.3764 20.75V22C18.3764 22 23.3764 21.2706 23.3764 17.5206ZM25.2514 16.5225C25.2514 15.6546 25.5961 14.8222 26.2099 14.2085C26.8236 13.5948 27.6559 13.25 28.5239 13.25H32.1264C32.9552 13.25 33.75 13.5792 34.3361 14.1653C34.9221 14.7513 35.2514 15.5462 35.2514 16.375C35.2514 17.2038 34.9221 17.9987 34.3361 18.5847C33.75 19.1708 32.9552 19.5 32.1264 19.5H30.8764V21.375C30.8764 21.375 25.2514 20.585 25.2514 16.5225ZM24.6264 32.3406C24.6264 30.4519 28.1657 29.5 29.9389 29.5C31.712 29.5 35.2514 30.4519 35.2514 32.3406V35.75H24.6264V32.3406Z" fill="#041492"/>
<path fill-rule="evenodd" clip-rule="evenodd" d="M26.0832 31.9894C25.8857 32.1844 25.8745 32.2963 25.8745 32.3413V34.5H33.9995V32.3406C33.9995 32.2969 33.9882 32.1844 33.7907 31.9894C33.582 31.7838 33.2376 31.5631 32.7657 31.3613C31.8157 30.9544 30.6557 30.75 29.937 30.75C29.2182 30.75 28.0576 30.9544 27.1082 31.3613C26.6363 31.5631 26.292 31.7838 26.0832 31.9894ZM29.937 29.5C28.1638 29.5 24.6245 30.4519 24.6245 32.3406V35.75H35.2495V32.3406C35.2495 30.4519 31.7101 29.5 29.937 29.5ZM23.9995 31.0906C23.9995 30.0425 22.8451 29.2825 21.4963 28.8138C22.2791 28.4439 23.1338 28.2514 23.9995 28.25C24.8652 28.2514 25.7199 28.4439 26.5026 28.8138C25.1538 29.2825 23.9995 30.0425 23.9995 31.0906Z" fill="#041492"/>
<path fill-rule="evenodd" clip-rule="evenodd" d="M23.9995 31.0907C23.9995 30.5326 24.327 30.0557 24.837 29.6613L24.9251 29.5957C25.3607 29.2794 25.9126 29.0188 26.5026 28.8144C25.9172 28.5384 25.2906 28.36 24.6476 28.2863C24.2169 28.2379 23.7821 28.2379 23.3513 28.2863C22.7084 28.3598 22.0818 28.538 21.4963 28.8138C22.0857 29.0188 22.6382 29.2794 23.0732 29.5951C23.1032 29.6169 23.1326 29.6388 23.1613 29.6613C23.672 30.0551 23.9995 30.5326 23.9995 31.0907Z" fill="#041492"/>
</svg>
