<svg width="98" height="98" viewBox="0 0 98 98" fill="none" xmlns="http://www.w3.org/2000/svg">
<g filter="url(#filter0_d_3631_27926)">
<rect x="9" y="5" width="80" height="80" rx="40" fill="#E0626B" shape-rendering="crispEdges"/>
<path d="M49 25.0454C39.375 25.0454 31.5 32.9204 31.5 42.5454C31.5 52.1704 39.375 60.0454 49 60.0454C58.625 60.0454 66.5 52.1704 66.5 42.5454C66.5 32.9204 58.625 25.0454 49 25.0454ZM59 47.4204L57.875 51.5454C57.75 52.0454 57.125 52.4204 56.625 52.2954C56.5 52.2954 56.25 52.1704 56.125 52.0454L55.625 51.5454C50.625 55.2954 43.625 54.2954 39.875 49.2954C38.5037 47.4254 37.7541 45.0581 37.75 42.5655C37.7489 41.8688 38.3099 41.2927 39.0066 41.2954C39.7529 41.2983 40.2499 41.7976 40.2499 42.5454C40.2499 47.4204 44.1249 51.2954 48.9999 51.2954C50.7499 51.2954 52.4999 50.7954 53.8749 49.7954L53.1249 49.0454C52.8573 48.7778 52.7807 48.3828 52.8951 48.0423C52.9672 47.8274 53.1448 47.6645 53.3621 47.5999L57.75 46.2954C58.099 46.1671 58.4898 46.2493 58.75 46.5056C59.1284 46.8782 59.0057 47.3979 59 47.4204ZM38.5 37.9204L39.625 33.7954C39.75 33.2954 40.375 32.9204 40.875 33.0454C41 33.0454 41.25 33.1704 41.375 33.2954L41.875 33.7954C46.625 29.7954 53.75 30.4204 57.75 35.2954C59.375 37.2954 60.375 39.7954 60.375 42.4204C60.25 43.2954 59.75 43.7954 59 43.7954C58.25 43.7954 57.75 43.2954 57.75 42.5454C57.75 37.6704 53.875 33.7954 49 33.7954C47 33.7954 45.125 34.4204 43.625 35.6704L44.375 36.4204C44.6954 36.7408 44.742 37.2438 44.5149 37.6174C44.4496 37.7249 44.3462 37.804 44.2256 37.8399L39.75 39.1704C39.3707 39.2858 38.9605 39.1736 38.7031 38.8845C38.339 38.4753 38.4914 37.9484 38.5 37.9204Z" fill="white"/>
</g>
<defs>
<filter id="filter0_d_3631_27926" x="0" y="0" width="98" height="98" filterUnits="userSpaceOnUse" color-interpolation-filters="sRGB">
<feFlood flood-opacity="0" result="BackgroundImageFix"/>
<feColorMatrix in="SourceAlpha" type="matrix" values="0 0 0 0 0 0 0 0 0 0 0 0 0 0 0 0 0 0 127 0" result="hardAlpha"/>
<feOffset dy="4"/>
<feGaussianBlur stdDeviation="4.5"/>
<feComposite in2="hardAlpha" operator="out"/>
<feColorMatrix type="matrix" values="0 0 0 0 0 0 0 0 0 0 0 0 0 0 0 0 0 0 0.25 0"/>
<feBlend mode="normal" in2="BackgroundImageFix" result="effect1_dropShadow_3631_27926"/>
<feBlend mode="normal" in="SourceGraphic" in2="effect1_dropShadow_3631_27926" result="shape"/>
</filter>
</defs>
</svg>
