<svg width="48" height="49" viewBox="0 0 48 49" fill="none" xmlns="http://www.w3.org/2000/svg">
<rect y="0.5" width="48" height="48" rx="5" fill="#E5E7F4"/>
<path d="M24.0013 17.8327H28.1513C28.4537 17.8328 28.7504 17.9152 29.0096 18.071L31.3871 19.4993C31.6748 19.6721 31.9129 19.9164 32.0782 20.2085C32.2434 20.5006 32.3303 20.8304 32.3303 21.166C32.3303 21.5016 32.2434 21.8315 32.0782 22.1235C31.9129 22.4156 31.6748 22.6599 31.3871 22.8327L29.0096 24.261C28.7504 24.4169 28.4537 24.4993 28.1513 24.4993H24.0013V31.9993C24.0013 32.2204 23.9135 32.4323 23.7572 32.5886C23.6009 32.7449 23.389 32.8327 23.168 32.8327C22.947 32.8327 22.735 32.7449 22.5787 32.5886C22.4224 32.4323 22.3346 32.2204 22.3346 31.9993V24.4993H17.3346C16.8926 24.4993 16.4687 24.3238 16.1561 24.0112C15.8436 23.6986 15.668 23.2747 15.668 22.8327V19.4993C15.668 19.0573 15.8436 18.6334 16.1561 18.3208C16.4687 18.0083 16.8926 17.8327 17.3346 17.8327H22.3346V16.9993C22.3346 16.7783 22.4224 16.5664 22.5787 16.4101C22.735 16.2538 22.947 16.166 23.168 16.166C23.389 16.166 23.6009 16.2538 23.7572 16.4101C23.9135 16.5664 24.0013 16.7783 24.0013 16.9993V17.8327Z" fill="#041492"/>
</svg>
