<svg width="48" height="49" viewBox="0 0 48 49" fill="none" xmlns="http://www.w3.org/2000/svg">
<rect y="0.5" width="48" height="48" rx="5" fill="#E5E7F4"/>
<path d="M20.5625 25.75C20.5625 27.1312 19.4437 28.25 18.0625 28.25C16.6812 28.25 15.5625 27.1312 15.5625 25.75C15.5625 24.3687 16.6812 23.25 18.0625 23.25C19.4437 23.25 20.5625 24.3687 20.5625 25.75Z" fill="#041492"/>
<path fill-rule="evenodd" clip-rule="evenodd" d="M18.0625 27C18.394 27 18.712 26.8683 18.9464 26.6339C19.1808 26.3995 19.3125 26.0815 19.3125 25.75C19.3125 25.4185 19.1808 25.1005 18.9464 24.8661C18.712 24.6317 18.394 24.5 18.0625 24.5C17.731 24.5 17.413 24.6317 17.1786 24.8661C16.9442 25.1005 16.8125 25.4185 16.8125 25.75C16.8125 26.0815 16.9442 26.3995 17.1786 26.6339C17.413 26.8683 17.731 27 18.0625 27ZM18.0625 28.25C19.4437 28.25 20.5625 27.1312 20.5625 25.75C20.5625 24.3687 19.4437 23.25 18.0625 23.25C16.6812 23.25 15.5625 24.3687 15.5625 25.75C15.5625 27.1312 16.6812 28.25 18.0625 28.25Z" fill="#041492"/>
<path d="M12.75 32.3406C12.75 30.4519 16.2894 29.5 18.0625 29.5C19.8356 29.5 23.375 30.4519 23.375 32.3406V35.75H12.75V32.3406Z" fill="#041492"/>
<path fill-rule="evenodd" clip-rule="evenodd" d="M14.2087 31.9894C14.0112 32.1844 14 32.2963 14 32.3413V34.5H22.125V32.3406C22.125 32.2969 22.1138 32.1844 21.9163 31.9894C21.7075 31.7838 21.3631 31.5631 20.8912 31.3613C19.9412 30.9544 18.7812 30.75 18.0625 30.75C17.3438 30.75 16.1831 30.9544 15.2337 31.3613C14.7619 31.5631 14.4175 31.7838 14.2087 31.9894ZM18.0625 29.5C16.2894 29.5 12.75 30.4519 12.75 32.3406V35.75H23.375V32.3406C23.375 30.4519 19.8356 29.5 18.0625 29.5Z" fill="#041492"/>
<path d="M32.4375 25.75C32.4375 27.1312 31.3187 28.25 29.9375 28.25C28.5562 28.25 27.4375 27.1312 27.4375 25.75C27.4375 24.3687 28.5562 23.25 29.9375 23.25C31.3187 23.25 32.4375 24.3687 32.4375 25.75Z" fill="#041492"/>
<path fill-rule="evenodd" clip-rule="evenodd" d="M29.9375 27C30.269 27 30.587 26.8683 30.8214 26.6339C31.0558 26.3995 31.1875 26.0815 31.1875 25.75C31.1875 25.4185 31.0558 25.1005 30.8214 24.8661C30.587 24.6317 30.269 24.5 29.9375 24.5C29.606 24.5 29.288 24.6317 29.0536 24.8661C28.8192 25.1005 28.6875 25.4185 28.6875 25.75C28.6875 26.0815 28.8192 26.3995 29.0536 26.6339C29.288 26.8683 29.606 27 29.9375 27ZM29.9375 28.25C31.3187 28.25 32.4375 27.1312 32.4375 25.75C32.4375 24.3687 31.3187 23.25 29.9375 23.25C28.5562 23.25 27.4375 24.3687 27.4375 25.75C27.4375 27.1312 28.5562 28.25 29.9375 28.25Z" fill="#041492"/>
<path d="M26.5 24.5C26.5 25.8812 25.3812 27 24 27C22.6187 27 21.5 25.8812 21.5 24.5C21.5 23.1187 22.6187 22 24 22C25.3812 22 26.5 23.1187 26.5 24.5Z" fill="#041492"/>
<path fill-rule="evenodd" clip-rule="evenodd" d="M24 25.75C24.3315 25.75 24.6495 25.6183 24.8839 25.3839C25.1183 25.1495 25.25 24.8315 25.25 24.5C25.25 24.1685 25.1183 23.8505 24.8839 23.6161C24.6495 23.3817 24.3315 23.25 24 23.25C23.6685 23.25 23.3505 23.3817 23.1161 23.6161C22.8817 23.8505 22.75 24.1685 22.75 24.5C22.75 24.8315 22.8817 25.1495 23.1161 25.3839C23.3505 25.6183 23.6685 25.75 24 25.75ZM24 27C25.3812 27 26.5 25.8812 26.5 24.5C26.5 23.1187 25.3812 22 24 22C22.6187 22 21.5 23.1187 21.5 24.5C21.5 25.8812 22.6187 27 24 27Z" fill="#041492"/>
<path d="M23.3761 17.5206C23.3761 16.7195 23.0579 15.9512 22.4914 15.3847C21.9249 14.8182 21.1566 14.5 20.3555 14.5H18.3749C17.5553 14.4987 16.7681 14.8195 16.1829 15.3932C15.5977 15.967 15.2614 16.7478 15.2466 17.5672C15.2318 18.3866 15.5395 19.179 16.1036 19.7736C16.6676 20.3682 17.4427 20.7173 18.2617 20.7456L18.3761 20.75V22C18.3761 22 23.3761 21.2706 23.3761 17.5206ZM25.2511 16.5225C25.2511 15.6546 25.5959 14.8222 26.2096 14.2085C26.8233 13.5948 27.6557 13.25 28.5236 13.25H32.1261C32.9549 13.25 33.7498 13.5792 34.3358 14.1653C34.9219 14.7513 35.2511 15.5462 35.2511 16.375C35.2511 17.2038 34.9219 17.9987 34.3358 18.5847C33.7498 19.1708 32.9549 19.5 32.1261 19.5H30.8761V21.375C30.8761 21.375 25.2511 20.585 25.2511 16.5225ZM24.6261 32.3406C24.6261 30.4519 28.1655 29.5 29.9386 29.5C31.7117 29.5 35.2511 30.4519 35.2511 32.3406V35.75H24.6261V32.3406Z" fill="#041492"/>
<path fill-rule="evenodd" clip-rule="evenodd" d="M26.083 31.9894C25.8855 32.1844 25.8742 32.2963 25.8742 32.3413V34.5H33.9992V32.3406C33.9992 32.2969 33.988 32.1844 33.7905 31.9894C33.5817 31.7838 33.2373 31.5631 32.7655 31.3613C31.8155 30.9544 30.6555 30.75 29.9367 30.75C29.218 30.75 28.0573 30.9544 27.108 31.3613C26.6361 31.5631 26.2917 31.7838 26.083 31.9894ZM29.9367 29.5C28.1636 29.5 24.6242 30.4519 24.6242 32.3406V35.75H35.2492V32.3406C35.2492 30.4519 31.7098 29.5 29.9367 29.5ZM23.9992 31.0906C23.9992 30.0425 22.8448 29.2825 21.4961 28.8138C22.2788 28.4439 23.1335 28.2514 23.9992 28.25C24.8649 28.2514 25.7196 28.4439 26.5023 28.8138C25.1536 29.2825 23.9992 30.0425 23.9992 31.0906Z" fill="#041492"/>
<path fill-rule="evenodd" clip-rule="evenodd" d="M23.9992 31.0907C23.9992 30.5326 24.3267 30.0557 24.8367 29.6613L24.9248 29.5957C25.3605 29.2794 25.9123 29.0188 26.5023 28.8144C25.9169 28.5384 25.2903 28.36 24.6473 28.2863C24.2166 28.2379 23.7818 28.2379 23.3511 28.2863C22.7081 28.3598 22.0815 28.538 21.4961 28.8138C22.0855 29.0188 22.638 29.2794 23.073 29.5951C23.103 29.6169 23.1323 29.6388 23.1611 29.6613C23.6717 30.0551 23.9992 30.5326 23.9992 31.0907Z" fill="#041492"/>
</svg>
