<svg width="83" height="83" viewBox="0 0 83 83" fill="none" xmlns="http://www.w3.org/2000/svg">
<g filter="url(#filter0_d_6797_89739)">
<rect x="8.5" y="4.8374" width="66.8373" height="66.8373" rx="33.4186" fill="#F6C158" shape-rendering="crispEdges"/>
<g clip-path="url(#clip0_6797_89739)">
<path d="M53.7884 24.3663C53.2341 23.8109 52.497 23.5049 51.7127 23.5049H50.4108V24.8103C50.4108 26.2499 49.2409 27.4211 47.8029 27.4211H36.0672C34.6291 27.4211 33.4592 26.2499 33.4592 24.8103V23.5049H32.1531C30.5371 23.5049 29.221 24.821 29.2192 26.4388L29.191 52.025C29.1901 52.8101 29.4949 53.5484 30.0491 54.104C30.6034 54.6595 31.3406 54.9654 32.1249 54.9654H51.6844C53.3004 54.9654 54.6166 53.6493 54.6183 52.0315L54.6466 26.4453C54.6475 25.6602 54.3427 24.9218 53.7884 24.3663ZM42.2513 33.2955H49.1995C49.7397 33.2955 50.1775 33.7339 50.1775 34.2746C50.1775 34.8153 49.7397 35.2536 49.1995 35.2536H42.2513C41.7112 35.2536 41.2733 34.8153 41.2733 34.2746C41.2733 33.7339 41.7112 33.2955 42.2513 33.2955ZM42.2513 39.8226H49.1995C49.7397 39.8226 50.1775 40.2609 50.1775 40.8016C50.1775 41.3423 49.7397 41.7807 49.1995 41.7807H42.2513C41.7112 41.7807 41.2733 41.3423 41.2733 40.8016C41.2733 40.2609 41.7112 39.8226 42.2513 39.8226ZM42.2513 46.3497H49.2275C49.7676 46.3497 50.2054 46.788 50.2054 47.3287C50.2054 47.8694 49.7676 48.3078 49.2275 48.3078H42.2513C41.7112 48.3078 41.2733 47.8694 41.2733 47.3287C41.2733 46.788 41.7112 46.3497 42.2513 46.3497ZM33.9186 33.3341C34.3006 32.9518 34.9197 32.9518 35.3017 33.3341L35.8335 33.8666L38.0888 31.6087C38.4708 31.2264 39.09 31.2263 39.4718 31.6087C39.8537 31.991 39.8537 32.6109 39.4718 32.9933L36.5249 35.9434C36.3415 36.127 36.0928 36.2302 35.8334 36.2302C35.574 36.2302 35.3253 36.1271 35.1418 35.9434L33.9185 34.7187C33.5366 34.3364 33.5366 33.7164 33.9186 33.3341ZM33.9186 40.3597C34.3006 39.9773 34.9197 39.9773 35.3017 40.3597L35.8335 40.892L38.0888 38.6342C38.4707 38.2519 39.09 38.2519 39.4718 38.6342C39.8537 39.0165 39.8537 39.6364 39.4718 40.0188L36.5249 42.969C36.3416 43.1526 36.0928 43.2558 35.8334 43.2558C35.574 43.2558 35.3253 43.1526 35.1418 42.969L33.9185 41.7442C33.5366 41.3619 33.5366 40.7421 33.9186 40.3597ZM33.9186 46.8868C34.3006 46.5044 34.9197 46.5044 35.3017 46.8868L35.8335 47.4191L38.0888 45.1613C38.4707 44.779 39.09 44.779 39.4718 45.1613C39.8537 45.5436 39.8537 46.1635 39.4718 46.5459L36.5249 49.496C36.3416 49.6796 36.0928 49.7828 35.8334 49.7828C35.574 49.7828 35.3253 49.6797 35.1418 49.496L33.9185 48.2713C33.5366 47.889 33.5366 47.2691 33.9186 46.8868Z" fill="white"/>
<path d="M35.4153 24.8104C35.4153 25.1709 35.7072 25.4631 36.0673 25.4631H47.803C48.1631 25.4631 48.455 25.1709 48.455 24.8104V22.1996C48.455 21.8391 48.1631 21.5469 47.803 21.5469H36.0673C35.7072 21.5469 35.4153 21.8391 35.4153 22.1996V24.8104Z" fill="white"/>
</g>
</g>
<defs>
<filter id="filter0_d_6797_89739" x="0.980804" y="0.660071" width="81.8757" height="81.8758" filterUnits="userSpaceOnUse" color-interpolation-filters="sRGB">
<feFlood flood-opacity="0" result="BackgroundImageFix"/>
<feColorMatrix in="SourceAlpha" type="matrix" values="0 0 0 0 0 0 0 0 0 0 0 0 0 0 0 0 0 0 127 0" result="hardAlpha"/>
<feOffset dy="3.34186"/>
<feGaussianBlur stdDeviation="3.7596"/>
<feComposite in2="hardAlpha" operator="out"/>
<feColorMatrix type="matrix" values="0 0 0 0 0 0 0 0 0 0 0 0 0 0 0 0 0 0 0.25 0"/>
<feBlend mode="normal" in2="BackgroundImageFix" result="effect1_dropShadow_6797_89739"/>
<feBlend mode="normal" in="SourceGraphic" in2="effect1_dropShadow_6797_89739" result="shape"/>
</filter>
<clipPath id="clip0_6797_89739">
<rect width="33.4186" height="33.4186" fill="white" transform="translate(25.2094 21.5469)"/>
</clipPath>
</defs>
</svg>
