<svg width="83" height="83" viewBox="0 0 83 83" fill="none" xmlns="http://www.w3.org/2000/svg">
<g filter="url(#filter0_d_6797_89764)">
<rect x="8.5" y="4.6748" width="66.8373" height="66.8373" rx="33.4186" fill="#FF6B00" shape-rendering="crispEdges"/>
<path fill-rule="evenodd" clip-rule="evenodd" d="M39.8531 30.6593C39.9609 30.4571 40.1224 30.2885 40.32 30.1722C40.5175 30.0559 40.7433 29.9964 40.9725 30.0002L43.4627 30.0381C43.6913 30.0418 43.9145 30.1084 44.1078 30.2305C44.3011 30.3526 44.457 30.5256 44.5584 30.7305L45.5545 32.7316L47.3143 32.5822C47.5398 32.5631 47.7663 32.6057 47.9693 32.7055C48.1724 32.8054 48.3444 32.9587 48.4669 33.1489L49.7239 35.0979C49.8589 35.3078 49.9277 35.5534 49.9213 35.8029C49.915 36.0523 49.8338 36.2941 49.6883 36.4968L48.7634 37.7914L49.7476 39.0908C50.0536 39.4938 50.0844 40.0439 49.8235 40.4802L48.6377 42.4671C48.5208 42.6629 48.3524 42.8228 48.1508 42.9295C47.9492 43.0361 47.7222 43.0853 47.4945 43.0718L45.6328 42.9579L44.4873 45.3029C44.3847 45.5122 44.2254 45.6886 44.0275 45.8118C43.8296 45.935 43.601 46.0002 43.3679 46H40.8017C40.569 45.9998 40.3409 45.9344 40.1435 45.8112C39.946 45.688 39.7871 45.5119 39.6847 45.3029L38.6079 43.1002L36.6158 43.2804C36.3859 43.301 36.1549 43.2574 35.9485 43.1544C35.742 43.0514 35.5682 42.8931 35.4465 42.6971L34.1872 40.6699C34.0536 40.4547 33.9889 40.2039 34.0016 39.951C34.0143 39.6981 34.1039 39.4551 34.2583 39.2544L35.3967 37.7725L34.4813 36.4945C34.3361 36.2915 34.2554 36.0496 34.2494 35.8001C34.2435 35.5507 34.3127 35.3052 34.4481 35.0956L35.705 33.1466C35.8273 32.9567 35.999 32.8036 36.2016 32.7038C36.4042 32.604 36.6302 32.5611 36.8553 32.5799L38.7455 32.7411L39.8531 30.6593ZM41.2713 31.7832L40.1519 33.8887C40.0375 34.1041 39.8624 34.2812 39.6482 34.398C39.434 34.5148 39.1902 34.566 38.9471 34.5455L37.026 34.3819L36.139 35.7571L37.0735 37.0612C37.2289 37.2781 37.3105 37.5392 37.3063 37.806C37.302 38.0728 37.2121 38.3312 37.0498 38.5431L35.8924 40.0463L36.7841 41.4832L38.8143 41.2982C39.0658 41.2749 39.3185 41.3287 39.5388 41.4523C39.7591 41.576 39.9365 41.7637 40.0475 41.9906L41.1361 44.2217H43.0335L44.1908 41.8578C44.2989 41.6372 44.4699 41.4536 44.6822 41.33C44.8944 41.2064 45.1385 41.1483 45.3838 41.1631L47.2763 41.2769L48.1112 39.878L47.1056 38.5502C46.9456 38.3385 46.8575 38.0812 46.8541 37.8159C46.8507 37.5506 46.9322 37.2911 47.0866 37.0754L48.0329 35.7571L47.1459 34.3819L45.3434 34.5336C45.0943 34.5548 44.8446 34.5006 44.6268 34.378C44.4089 34.2553 44.233 34.07 44.122 33.846L43.1093 31.8117L41.2713 31.7832Z" fill="white"/>
<path d="M53.7562 41.9405L53.5198 41.8663L53.4435 42.102C52.6155 44.658 50.9723 46.872 48.7656 48.4047C46.5589 49.9374 43.9106 50.7043 41.2263 50.5878C38.5421 50.4714 35.9701 49.478 33.9045 47.7599C31.9051 46.0969 30.4869 43.8437 29.8507 41.3266L31.965 40.9093L32.4154 40.8203L32.0963 40.4902L27.5846 35.8226L27.3139 35.5426L27.172 35.9052L24.8103 41.9403L24.6444 42.3644L25.0913 42.2767L27.3521 41.8331C28.0935 44.9273 29.8084 47.7046 32.2478 49.7541C34.7494 51.8559 37.8737 53.0753 41.1377 53.2239C44.4017 53.3726 47.6238 52.4421 50.3061 50.5763C52.9884 48.7105 54.9815 46.0132 55.9775 42.9014L56.0542 42.6619L55.8143 42.5866L53.7562 41.9405ZM49.5731 28.8872C51.5728 30.55 52.9913 32.803 53.6278 35.3201L51.5132 35.74L51.0629 35.8294L51.3824 36.1592L55.8941 40.8157L56.1634 41.0936L56.306 40.7339L58.6955 34.7071L58.865 34.2798L58.4142 34.3698L56.1985 34.8124C55.4567 31.7187 53.7416 28.942 51.3022 26.8929C48.8004 24.7914 45.6761 23.5723 42.4121 23.424C39.1481 23.2757 35.9261 24.2065 33.2441 26.0725C30.562 27.9385 28.5691 30.6359 27.5733 33.7478L27.4975 33.9848L27.7341 34.0618L29.7198 34.7079L29.9579 34.7853L30.035 34.5472C30.8627 31.9911 32.5057 29.777 34.7122 28.2441C36.9186 26.7112 39.5669 25.944 42.2511 26.0601C44.9353 26.1763 47.5073 27.1694 49.5731 28.8872Z" fill="white" stroke="white" stroke-width="0.5"/>
<path fill-rule="evenodd" clip-rule="evenodd" d="M42.1331 37.0887C41.8561 37.0887 41.5905 37.1988 41.3946 37.3946C41.1988 37.5905 41.0887 37.8561 41.0887 38.1331C41.0887 38.4101 41.1988 38.6758 41.3946 38.8716C41.5905 39.0675 41.8561 39.1775 42.1331 39.1775C42.4101 39.1775 42.6758 39.0675 42.8716 38.8716C43.0675 38.6758 43.1775 38.4101 43.1775 38.1331C43.1775 37.8561 43.0675 37.5905 42.8716 37.3946C42.6758 37.1988 42.4101 37.0887 42.1331 37.0887ZM39 38.1331C39 37.3022 39.3301 36.5052 39.9177 35.9177C40.5052 35.3301 41.3022 35 42.1331 35C42.9641 35 43.761 35.3301 44.3486 35.9177C44.9362 36.5052 45.2662 37.3022 45.2662 38.1331C45.2662 38.9641 44.9362 39.761 44.3486 40.3486C43.761 40.9362 42.9641 41.2662 42.1331 41.2662C41.3022 41.2662 40.5052 40.9362 39.9177 40.3486C39.3301 39.761 39 38.9641 39 38.1331Z" fill="white"/>
</g>
<defs>
<filter id="filter0_d_6797_89764" x="0.980804" y="0.497474" width="81.8757" height="81.8758" filterUnits="userSpaceOnUse" color-interpolation-filters="sRGB">
<feFlood flood-opacity="0" result="BackgroundImageFix"/>
<feColorMatrix in="SourceAlpha" type="matrix" values="0 0 0 0 0 0 0 0 0 0 0 0 0 0 0 0 0 0 127 0" result="hardAlpha"/>
<feOffset dy="3.34186"/>
<feGaussianBlur stdDeviation="3.7596"/>
<feComposite in2="hardAlpha" operator="out"/>
<feColorMatrix type="matrix" values="0 0 0 0 0 0 0 0 0 0 0 0 0 0 0 0 0 0 0.25 0"/>
<feBlend mode="normal" in2="BackgroundImageFix" result="effect1_dropShadow_6797_89764"/>
<feBlend mode="normal" in="SourceGraphic" in2="effect1_dropShadow_6797_89764" result="shape"/>
</filter>
</defs>
</svg>
