<svg width="24" height="24" viewBox="0 0 24 24" fill="none" xmlns="http://www.w3.org/2000/svg">
<g clip-path="url(#clip0_4170_21205)">
<path d="M11.5 16.5156H12.5001V23.5157H11.5V16.5156Z" fill="#6E7079"/>
<path d="M4.5 14.5156H19.5V15.5156H4.5V14.5156Z" fill="#6E7079"/>
<path d="M21.5001 8.01569C20.1215 8.01569 19 6.89417 19 5.51575C19 4.13715 20.1215 3.01562 21.5001 3.01562C22.8785 3.01562 24.0001 4.13715 24.0001 5.51575C24.0001 6.89417 22.8785 8.01569 21.5001 8.01569ZM21.5001 4.01575C20.673 4.01575 20.0001 4.68866 20.0001 5.51575C20.0001 6.34265 20.673 7.01575 21.5001 7.01575C22.327 7.01575 23.0001 6.34265 23.0001 5.51575C23.0001 4.68866 22.327 4.01575 21.5001 4.01575Z" fill="#6E7079"/>
<path d="M16.4999 23.5157C16.434 23.5157 16.367 23.5031 16.3029 23.4751C16.049 23.3661 15.9314 23.0723 16.0405 22.8187L17.5405 19.3186C17.6189 19.1348 17.8 19.0157 17.9999 19.0157H21.5C22.3269 19.0157 23 18.3427 23 17.5157V11.0157C23 10.4642 22.5514 10.0157 21.9999 10.0157H21.5C21.149 10.0157 20.8295 10.2477 20.399 10.8177C19.916 11.4557 18.45 13.2556 18.3879 13.3316C18.2924 13.4482 18.1505 13.5156 17.9999 13.5156H15.5C15.2239 13.5156 14.9999 13.7397 14.9999 14.0157V15.0156C14.9999 15.2921 14.7764 15.5157 14.4999 15.5157C14.2234 15.5157 14 15.2921 14 15.0156V14.0157C14 13.1886 14.6729 12.5157 15.5 12.5157H17.7619C18.1559 12.0306 19.218 10.7207 19.601 10.2142C20.0234 9.65613 20.6204 9.01562 21.5 9.01562H21.9999C23.1029 9.01562 23.9999 9.91266 23.9999 11.0157V17.5157C23.9999 18.8942 22.8784 20.0157 21.5 20.0157H18.3295L16.9594 23.2127C16.8784 23.4022 16.6938 23.5157 16.4999 23.5157Z" fill="#6E7079"/>
<path d="M14.4997 23.5156C14.4477 23.5156 14.3943 23.507 14.3417 23.4896C14.0802 23.4026 13.9383 23.1196 14.0259 22.857L15.6839 17.8826C15.9552 17.0656 16.7182 16.5155 17.5809 16.5155H18.9997V15.0155C18.9997 14.739 19.2233 14.5156 19.4998 14.5156C19.7763 14.5156 19.9999 14.739 19.9999 15.0155V17.0156C19.9999 17.2921 19.7763 17.5156 19.4998 17.5156H17.5809C17.1498 17.5156 16.7682 17.7901 16.6327 18.1986L14.9743 23.1736C14.9042 23.3831 14.7092 23.5156 14.4997 23.5156Z" fill="#6E7079"/>
<path d="M19.4996 15.5156C19.3953 15.5156 19.2902 15.4832 19.2002 15.4156C18.9792 15.2501 18.9342 14.9366 19.1001 14.7161L20.6001 12.7161C20.7656 12.4951 21.0791 12.4506 21.2997 12.6161C21.5207 12.7816 21.5656 13.0951 21.3997 13.3156L19.8997 15.3156C19.8021 15.4466 19.6522 15.5156 19.4996 15.5156Z" fill="#6E7079"/>
<path d="M2.49994 8.01569C1.12152 8.01569 0 6.89417 0 5.51575C0 4.13715 1.12152 3.01562 2.49994 3.01562C3.87854 3.01562 5.00006 4.13715 5.00006 5.51575C5.00006 6.89417 3.87854 8.01569 2.49994 8.01569ZM2.49994 4.01575C1.67303 4.01575 0.999939 4.68866 0.999939 5.51575C0.999939 6.34265 1.67303 7.01575 2.49994 7.01575C3.32703 7.01575 3.99994 6.34265 3.99994 5.51575C3.99994 4.68866 3.32703 4.01575 2.49994 4.01575Z" fill="#6E7079"/>
<path d="M7.5 23.5157C7.30609 23.5157 7.12152 23.4022 7.04059 23.2127L5.67041 20.0157H2.49994C1.12152 20.0157 0 18.8942 0 17.5157V11.0157C0 9.91266 0.897034 9.01562 2.00006 9.01562H2.49994C3.37958 9.01562 3.97705 9.65613 4.39856 10.2142C4.78198 10.7207 5.84344 12.0306 6.23749 12.5157H8.49994C9.32703 12.5157 9.99994 13.1886 9.99994 14.0157V15.0156C9.99994 15.2921 9.776 15.5157 9.50006 15.5157C9.22394 15.5157 9 15.2921 9 15.0156V14.0157C9 13.7397 8.77551 13.5156 8.49994 13.5156H6C5.84949 13.5156 5.70758 13.4482 5.61255 13.3316C5.55048 13.2556 4.08398 11.4557 3.6015 10.8172C3.17047 10.2477 2.8515 10.0157 2.49994 10.0157H2.00006C1.44855 10.0157 0.999939 10.4642 0.999939 11.0157V17.5157C0.999939 18.3427 1.67303 19.0157 2.49994 19.0157H6C6.19995 19.0157 6.38104 19.1348 6.45941 19.3186L7.95941 22.8187C8.06854 23.0723 7.95044 23.3661 7.69702 23.4751C7.63293 23.5031 7.56592 23.5157 7.5 23.5157Z" fill="#6E7079"/>
<path d="M9.50012 23.5156C9.29065 23.5156 9.09564 23.3831 9.02551 23.1736L7.36749 18.199C7.23163 17.7906 6.85004 17.5156 6.41901 17.5156H4.50006C4.22412 17.5156 4 17.2921 4 17.0156V15.0155C4 14.739 4.22412 14.5156 4.50006 14.5156C4.776 14.5156 5.00012 14.739 5.00012 15.0155V16.5155H6.41901C7.28162 16.5155 8.04407 17.065 8.31653 17.8826L9.97455 22.857C10.0621 23.119 9.92053 23.4026 9.65851 23.4896C9.60559 23.507 9.55212 23.5156 9.50012 23.5156Z" fill="#6E7079"/>
<path d="M4.50072 15.5156C4.34875 15.5156 4.1986 15.4466 4.10009 15.3156L2.60009 13.3156C2.4342 13.0951 2.47924 12.7816 2.70025 12.6161C2.92217 12.4506 3.2351 12.4951 3.40026 12.7161L4.90026 14.7161C5.06615 14.9366 5.02111 15.2501 4.8001 15.4156C4.7102 15.4832 4.60473 15.5156 4.50072 15.5156Z" fill="#6E7079"/>
<path d="M15.9999 13.5156C15.7235 13.5156 15.5001 13.2922 15.5001 13.0157V9.51562C15.5001 8.4126 14.603 7.51556 13.5 7.51556H10.5C9.39697 7.51556 8.49994 8.4126 8.49994 9.51562V11.0156C8.49994 11.2916 8.276 11.5157 8.00006 11.5157C7.72394 11.5157 7.5 11.2916 7.5 11.0156V9.51562C7.5 7.86108 8.84546 6.51562 10.5 6.51562H13.5C15.1545 6.51562 16.5 7.86108 16.5 9.51562V13.0157C16.5 13.2922 16.2764 13.5156 15.9999 13.5156Z" fill="#6E7079"/>
<path d="M11.9999 5.51569C10.6215 5.51569 9.5 4.39417 9.5 3.01556C9.5 1.63715 10.6215 0.515625 11.9999 0.515625C13.3784 0.515625 14.4999 1.63715 14.4999 3.01556C14.4999 4.39417 13.3784 5.51569 11.9999 5.51569ZM11.9999 1.51556C11.1729 1.51556 10.4999 2.18866 10.4999 3.01556C10.4999 3.84265 11.1729 4.51556 11.9999 4.51556C12.827 4.51556 13.4999 3.84265 13.4999 3.01556C13.4999 2.18866 12.827 1.51556 11.9999 1.51556Z" fill="#6E7079"/>
<path d="M11.5 8.51562H12.5001V9.51556H11.5V8.51562Z" fill="#6E7079"/>
</g>
<defs>
<clipPath id="clip0_4170_21205">
<rect width="24" height="24" fill="white"/>
</clipPath>
</defs>
</svg>
