<svg width="102" height="101" viewBox="0 0 102 101" fill="none" xmlns="http://www.w3.org/2000/svg">
<g filter="url(#filter0_d_6797_89731)">
<rect x="17.5" y="13.8374" width="66.8373" height="66.8373" rx="33.4186" fill="#FF0000" shape-rendering="crispEdges"/>
<path d="M50.9186 65.9194C48.3368 65.9194 45.9106 65.4292 43.64 64.4488C41.3693 63.4683 39.3941 62.1389 37.7144 60.4605C36.0348 58.7808 34.7053 56.8056 33.7261 54.5349C32.747 52.2643 32.2567 49.8381 32.2555 47.2563C32.2555 44.6746 32.7457 42.2484 33.7261 39.9777C34.7066 37.7071 36.036 35.7319 37.7144 34.0522C39.3941 32.3725 41.3693 31.0431 43.64 30.0639C45.9106 29.0847 48.3368 28.5945 50.9186 28.5933H52.7849V44.037C53.3448 44.3791 53.7958 44.8227 54.1379 45.3676C54.4801 45.9126 54.6512 46.5422 54.6512 47.2563C54.6512 48.2828 54.286 49.1618 53.5557 49.8934C52.8253 50.625 51.9463 50.9902 50.9186 50.989C49.8921 50.989 49.0137 50.6238 48.2833 49.8934C47.553 49.1631 47.1872 48.284 47.186 47.2563C47.186 46.5409 47.357 45.9033 47.6992 45.3434C48.0413 44.7835 48.4924 44.348 49.0523 44.037V40.0244C47.4348 40.4599 46.0973 41.3389 45.0397 42.6615C43.9821 43.9841 43.4533 45.5157 43.4533 47.2563C43.4533 49.3093 44.1843 51.0667 45.6462 52.5287C47.1082 53.9906 48.8656 54.7216 50.9186 54.7216C52.9715 54.7216 54.7289 53.9906 56.1909 52.5287C57.6528 51.0667 58.3838 49.3093 58.3838 47.2563C58.3838 46.1366 58.158 45.1026 57.7063 44.1545C57.2547 43.2064 56.6407 42.3741 55.8643 41.6574L58.5238 38.9979C59.6125 40.0244 60.4834 41.2456 61.1366 42.6615C61.7898 44.0774 62.1164 45.609 62.1164 47.2563C62.1164 50.3668 61.0277 53.0108 58.8504 55.1881C56.673 57.3655 54.0291 58.4542 50.9186 58.4542C47.8081 58.4542 45.1641 57.3655 42.9868 55.1881C40.8094 53.0108 39.7207 50.3668 39.7207 47.2563C39.7207 44.4569 40.6072 42.0232 42.3802 39.9553C44.1532 37.8875 46.3772 36.6352 49.0523 36.1985V32.4192C45.3508 32.8858 42.2477 34.5188 39.7431 37.3182C37.2385 40.1177 35.9869 43.4304 35.9881 47.2563C35.9881 51.4244 37.4345 54.9549 40.3273 57.8476C43.22 60.7404 46.7505 62.1868 50.9186 62.1868C55.0867 62.1868 58.6171 60.7404 61.5099 57.8476C64.4026 54.9549 65.849 51.4244 65.849 47.2563C65.849 45.1101 65.4291 43.1038 64.5893 41.2375C63.7494 39.3712 62.5985 37.7537 61.1366 36.3851L63.7961 33.7256C65.5691 35.4364 66.9769 37.4508 68.0195 39.7687C69.0622 42.0867 69.5829 44.5825 69.5816 47.2563C69.5816 49.8381 69.0914 52.2643 68.111 54.5349C67.1306 56.8056 65.8011 58.7808 64.1227 60.4605C62.443 62.1401 60.4678 63.4702 58.1972 64.4506C55.9265 65.4311 53.5003 65.9207 50.9186 65.9194Z" fill="white"/>
</g>
<defs>
<filter id="filter0_d_6797_89731" x="0.790676" y="0.469943" width="100.256" height="100.256" filterUnits="userSpaceOnUse" color-interpolation-filters="sRGB">
<feFlood flood-opacity="0" result="BackgroundImageFix"/>
<feColorMatrix in="SourceAlpha" type="matrix" values="0 0 0 0 0 0 0 0 0 0 0 0 0 0 0 0 0 0 127 0" result="hardAlpha"/>
<feOffset dy="3.34186"/>
<feGaussianBlur stdDeviation="8.35466"/>
<feComposite in2="hardAlpha" operator="out"/>
<feColorMatrix type="matrix" values="0 0 0 0 0 0 0 0 0 0 0 0 0 0 0 0 0 0 0.25 0"/>
<feBlend mode="normal" in2="BackgroundImageFix" result="effect1_dropShadow_6797_89731"/>
<feBlend mode="normal" in="SourceGraphic" in2="effect1_dropShadow_6797_89731" result="shape"/>
</filter>
</defs>
</svg>
