<svg width="48" height="48" viewBox="0 0 48 48" fill="none" xmlns="http://www.w3.org/2000/svg">
<rect width="48" height="48" rx="5" fill="#E5E7F4"/>
<path d="M24.488 32.933C23.625 33.176 22.586 32.759 22.325 31.683C22.2611 31.4192 22.1358 31.1742 21.9593 30.968C21.7828 30.7618 21.5601 30.6001 21.3093 30.4963C21.0586 30.3924 20.7868 30.3491 20.5162 30.3701C20.2456 30.3911 19.9838 30.4757 19.752 30.617C18.209 31.557 16.442 29.791 17.382 28.247C17.5231 28.0153 17.6076 27.7537 17.6285 27.4832C17.6494 27.2128 17.6062 26.9412 17.5025 26.6906C17.3987 26.44 17.2373 26.2174 17.0313 26.0409C16.8253 25.8645 16.5806 25.7391 16.317 25.675C14.561 25.249 14.561 22.751 16.317 22.325C16.5808 22.2611 16.8258 22.1358 17.032 21.9593C17.2382 21.7828 17.3999 21.5601 17.5037 21.3093C17.6076 21.0586 17.6509 20.7868 17.6299 20.5162C17.6089 20.2456 17.5243 19.9838 17.383 19.752C16.443 18.209 18.209 16.442 19.753 17.382C20.753 17.99 22.049 17.452 22.325 16.317C22.751 14.561 25.249 14.561 25.675 16.317C25.7389 16.5808 25.8642 16.8258 26.0407 17.032C26.2172 17.2382 26.4399 17.3999 26.6907 17.5037C26.9414 17.6076 27.2132 17.6509 27.4838 17.6299C27.7544 17.6089 28.0162 17.5243 28.248 17.383C29.791 16.443 31.558 18.209 30.618 19.753C30.4769 19.9847 30.3924 20.2463 30.3715 20.5168C30.3506 20.7872 30.3938 21.0588 30.4975 21.3094C30.6013 21.56 30.7627 21.7826 30.9687 21.9591C31.1747 22.1355 31.4194 22.2609 31.683 22.325C33.439 22.751 33.439 25.249 31.683 25.675C31.148 25.805 30.707 26.182 30.496 26.691C30.447 26.809 30.412 26.876 30.39 27M28 31H34" stroke="#041492" stroke-width="2" stroke-linecap="round" stroke-linejoin="round"/>
<path d="M21 24C21 24.7956 21.3161 25.5587 21.8787 26.1213C22.4413 26.6839 23.2044 27 24 27C24.7956 27 25.5587 26.6839 26.1213 26.1213C26.6839 25.5587 27 24.7956 27 24C27 23.2044 26.6839 22.4413 26.1213 21.8787C25.5587 21.3161 24.7956 21 24 21C23.2044 21 22.4413 21.3161 21.8787 21.8787C21.3161 22.4413 21 23.2044 21 24Z" stroke="#041492" stroke-width="2" stroke-linecap="round" stroke-linejoin="round"/>
</svg>
