<svg width="83" height="83" viewBox="0 0 83 83" fill="none" xmlns="http://www.w3.org/2000/svg">
<g filter="url(#filter0_d_6797_89748)">
<rect x="8.5" y="4.6748" width="66.8373" height="66.8373" rx="33.4186" fill="#6562E0" shape-rendering="crispEdges"/>
<g clip-path="url(#clip0_6797_89748)">
<path d="M33.5636 53.4108C32.4032 53.4108 31.4168 53.0047 30.6046 52.1924C29.7923 51.3801 29.3861 50.3937 29.3861 49.2333C29.3861 48.0729 29.7923 47.0865 30.6046 46.2742C31.4168 45.4619 32.4032 45.0558 33.5636 45.0558C33.8885 45.0558 34.1902 45.0906 34.4687 45.1602C34.7472 45.2299 35.0141 45.3227 35.2694 45.4387L37.2537 42.967C36.6039 42.2476 36.1513 41.4353 35.8961 40.5302C35.6408 39.625 35.5827 38.7199 35.722 37.8148L32.9022 36.8749C32.5076 37.4551 32.0087 37.9192 31.4052 38.2674C30.8018 38.6155 30.1288 38.7895 29.3861 38.7895C28.2257 38.7895 27.2393 38.3834 26.4271 37.5711C25.6148 36.7588 25.2086 35.7725 25.2086 34.612C25.2086 33.4516 25.6148 32.4653 26.4271 31.653C27.2393 30.8407 28.2257 30.4345 29.3861 30.4345C30.5465 30.4345 31.5329 30.8407 32.3452 31.653C33.1575 32.4653 33.5636 33.4516 33.5636 34.612V34.8905L36.3834 35.8653C36.8476 35.0298 37.4687 34.3219 38.2466 33.7417C39.0245 33.1615 39.9004 32.7902 40.8742 32.6277V29.599C39.9691 29.3438 39.2209 28.8503 38.6295 28.1188C38.0382 27.3873 37.742 26.5346 37.7411 25.5608C37.7411 24.4004 38.1473 23.414 38.9596 22.6017C39.7718 21.7894 40.7582 21.3833 41.9186 21.3833C43.079 21.3833 44.0654 21.7894 44.8777 22.6017C45.69 23.414 46.0961 24.4004 46.0961 25.5608C46.0961 26.5356 45.7944 27.3887 45.191 28.1202C44.5876 28.8517 43.8449 29.3447 42.963 29.599V32.6277C43.9377 32.7902 44.8141 33.1615 45.592 33.7417C46.37 34.3219 46.9906 35.0298 47.4538 35.8653L50.2736 34.8905V34.612C50.2736 33.4516 50.6798 32.4653 51.4921 31.653C52.3043 30.8407 53.2907 30.4345 54.4511 30.4345C55.6115 30.4345 56.5979 30.8407 57.4102 31.653C58.2225 32.4653 58.6286 33.4516 58.6286 34.612C58.6286 35.7725 58.2225 36.7588 57.4102 37.5711C56.5979 38.3834 55.6115 38.7895 54.4511 38.7895C53.7085 38.7895 53.0294 38.6155 52.4139 38.2674C51.7984 37.9192 51.3055 37.4551 50.9351 36.8749L48.1152 37.8148C48.2545 38.7199 48.1965 39.6195 47.9412 40.5135C47.6859 41.4074 47.2333 42.2253 46.5835 42.967L48.5678 45.4039C48.8231 45.2879 49.09 45.2011 49.3685 45.1435C49.647 45.086 49.9487 45.0567 50.2736 45.0558C51.434 45.0558 52.4204 45.4619 53.2327 46.2742C54.045 47.0865 54.4511 48.0729 54.4511 49.2333C54.4511 50.3937 54.045 51.3801 53.2327 52.1924C52.4204 53.0047 51.434 53.4108 50.2736 53.4108C49.1132 53.4108 48.1268 53.0047 47.3146 52.1924C46.5023 51.3801 46.0961 50.3937 46.0961 49.2333C46.0961 48.7691 46.1718 48.3226 46.3231 47.8937C46.4744 47.4648 46.6773 47.0759 46.9316 46.7268L44.9473 44.2551C43.9958 44.7889 42.9806 45.0558 41.9019 45.0558C40.8232 45.0558 39.8076 44.7889 38.8551 44.2551L36.9056 46.7268C37.1609 47.0749 37.3642 47.4639 37.5155 47.8937C37.6669 48.3235 37.742 48.7701 37.7411 49.2333C37.7411 50.3937 37.335 51.3801 36.5227 52.1924C35.7104 53.0047 34.724 53.4108 33.5636 53.4108Z" fill="white"/>
</g>
</g>
<defs>
<filter id="filter0_d_6797_89748" x="0.980804" y="0.497474" width="81.8757" height="81.8758" filterUnits="userSpaceOnUse" color-interpolation-filters="sRGB">
<feFlood flood-opacity="0" result="BackgroundImageFix"/>
<feColorMatrix in="SourceAlpha" type="matrix" values="0 0 0 0 0 0 0 0 0 0 0 0 0 0 0 0 0 0 127 0" result="hardAlpha"/>
<feOffset dy="3.34186"/>
<feGaussianBlur stdDeviation="3.7596"/>
<feComposite in2="hardAlpha" operator="out"/>
<feColorMatrix type="matrix" values="0 0 0 0 0 0 0 0 0 0 0 0 0 0 0 0 0 0 0.25 0"/>
<feBlend mode="normal" in2="BackgroundImageFix" result="effect1_dropShadow_6797_89748"/>
<feBlend mode="normal" in="SourceGraphic" in2="effect1_dropShadow_6797_89748" result="shape"/>
</filter>
<clipPath id="clip0_6797_89748">
<rect width="33.42" height="33.42" fill="white" transform="translate(25.2086 21.3833)"/>
</clipPath>
</defs>
</svg>
