<svg width="102" height="101" viewBox="0 0 102 101" fill="none" xmlns="http://www.w3.org/2000/svg">
<g filter="url(#filter0_d_6797_89713)">
<rect x="17.5" y="14" width="66.8373" height="66.8373" rx="33.4186" fill="#AD00FF" shape-rendering="crispEdges"/>
<path d="M61.26 62.12L64.3 65H54.8V56L58.6 59.6C63.141 57.098 66.2 52.31 66.2 47C66.2 39.062 59.379 32.6 51 32.6C42.621 32.6 35.8 39.062 35.8 47C35.8 52.31 38.859 56.954 43.4 59.456V63.488C36.693 60.698 32 54.38 32 47C32 37.1 40.55 29 51 29C61.45 29 70 37.1 70 47C70 53.354 66.523 58.916 61.26 62.12Z" fill="white"/>
</g>
<defs>
<filter id="filter0_d_6797_89713" x="0.790676" y="0.632541" width="100.256" height="100.256" filterUnits="userSpaceOnUse" color-interpolation-filters="sRGB">
<feFlood flood-opacity="0" result="BackgroundImageFix"/>
<feColorMatrix in="SourceAlpha" type="matrix" values="0 0 0 0 0 0 0 0 0 0 0 0 0 0 0 0 0 0 127 0" result="hardAlpha"/>
<feOffset dy="3.34186"/>
<feGaussianBlur stdDeviation="8.35466"/>
<feComposite in2="hardAlpha" operator="out"/>
<feColorMatrix type="matrix" values="0 0 0 0 0 0 0 0 0 0 0 0 0 0 0 0 0 0 0.25 0"/>
<feBlend mode="normal" in2="BackgroundImageFix" result="effect1_dropShadow_6797_89713"/>
<feBlend mode="normal" in="SourceGraphic" in2="effect1_dropShadow_6797_89713" result="shape"/>
</filter>
</defs>
</svg>
