<svg width="48" height="48" viewBox="0 0 48 48" fill="none" xmlns="http://www.w3.org/2000/svg">
<rect width="48" height="48" rx="5" fill="#E5E7F4"/>
<path fill-rule="evenodd" clip-rule="evenodd" d="M33.9999 22V26C33.9999 26.3979 33.8419 26.7794 33.5606 27.0607C33.2793 27.342 32.8977 27.5 32.4999 27.5H31.5999V27.81C31.5999 28.95 30.7219 29.9 29.5849 29.988L28.3169 30.087C24.7776 30.363 21.2222 30.363 17.6829 30.087L16.3349 29.982C15.8026 29.9405 15.2994 29.722 14.9056 29.3613C14.5118 29.0007 14.25 28.5187 14.1619 27.992C13.7188 25.3488 13.7188 22.6503 14.1619 20.007C14.2502 19.4806 14.5121 18.9988 14.9059 18.6383C15.2997 18.2779 15.8027 18.0596 16.3349 18.018L17.6829 17.913C21.2222 17.6371 24.7776 17.6371 28.3169 17.913L29.5849 18.012C30.1333 18.0546 30.6455 18.3025 31.0191 18.7063C31.3926 19.1101 31.6 19.64 31.5999 20.19V20.5H32.4999C32.8977 20.5 33.2793 20.6581 33.5606 20.9394C33.8419 21.2207 33.9999 21.6022 33.9999 22ZM18.7499 21.38C18.75 21.2765 18.7286 21.1742 18.6871 21.0793C18.6457 20.9845 18.5851 20.8993 18.5091 20.829C18.4331 20.7588 18.3434 20.705 18.2456 20.6711C18.1478 20.6372 18.0441 20.6239 17.9409 20.632L17.7069 20.651C17.4933 20.668 17.2907 20.7528 17.1288 20.8932C16.9668 21.0335 16.8541 21.222 16.8069 21.431C16.4284 23.1167 16.4284 24.8653 16.8069 26.551C16.9019 26.98 17.2659 27.296 17.7029 27.332L17.9389 27.352C18.0422 27.3605 18.1462 27.3474 18.2442 27.3136C18.3422 27.2798 18.4322 27.2261 18.5084 27.1558C18.5846 27.0855 18.6454 27.0002 18.687 26.9052C18.7286 26.8103 18.75 26.7077 18.7499 26.604V21.38Z" fill="#041492"/>
</svg>
