<svg width="83" height="83" viewBox="0 0 83 83" fill="none" xmlns="http://www.w3.org/2000/svg">
<g filter="url(#filter0_d_6797_89722)">
<rect x="8.5" y="5" width="66.8373" height="66.8373" rx="33.4186" fill="#00C2FF" shape-rendering="crispEdges"/>
<mask id="path-2-outside-1_6797_89722" maskUnits="userSpaceOnUse" x="23.6242" y="24.8174" width="35" height="30" fill="black">
<rect fill="white" x="23.6242" y="24.8174" width="35" height="30"/>
<path fill-rule="evenodd" clip-rule="evenodd" d="M47.8127 25.8174C48.0416 25.8175 48.265 25.8881 48.4523 26.0197C48.6397 26.1512 48.782 26.3373 48.8598 26.5526L55.5438 45.0896C55.5984 45.2282 55.6247 45.3763 55.621 45.5252C55.6174 45.6741 55.5839 45.8207 55.5226 45.9565C55.4613 46.0922 55.3734 46.2143 55.2641 46.3155C55.1548 46.4167 55.0264 46.4949 54.8863 46.5456C54.7462 46.5962 54.5974 46.6183 54.4487 46.6104C54.2999 46.6026 54.1543 46.565 54.0203 46.4999C53.8864 46.4347 53.7668 46.3434 53.6688 46.2313C53.5707 46.1192 53.4962 45.9885 53.4495 45.8471L51.2616 39.778H44.3637L42.1758 45.8471C42.0678 46.1141 41.8605 46.3289 41.5975 46.4463C41.3345 46.5638 41.0362 46.5748 40.7653 46.4771C40.4943 46.3794 40.2717 46.1805 40.1443 45.9222C40.0168 45.6639 39.9943 45.3663 40.0815 45.0918L46.7655 26.5549C46.8433 26.3395 46.9856 26.1535 47.173 26.0219C47.3604 25.8903 47.5837 25.8197 47.8127 25.8196M47.8127 30.2177L50.5776 37.8865H45.0499L47.8127 30.2177ZM29.9887 26.5972C30.4788 26.5972 30.8799 26.9982 30.8799 27.4884V43.1601L33.8141 40.2259C33.9828 40.0659 34.2072 39.9782 34.4396 39.9814C34.672 39.9846 34.8939 40.0784 35.0581 40.2429C35.2223 40.4074 35.3158 40.6295 35.3185 40.8619C35.3213 41.0943 35.2332 41.3186 35.073 41.4869L30.617 45.9429C30.4499 46.1096 30.2235 46.2032 29.9875 46.2032C29.7516 46.2032 29.5252 46.1096 29.3581 45.9429L24.9021 41.4869C24.8158 41.405 24.7468 41.3067 24.6991 41.1978C24.6513 41.0888 24.6259 40.9714 24.6243 40.8525C24.6227 40.7335 24.6449 40.6155 24.6896 40.5052C24.7343 40.395 24.8006 40.2948 24.8847 40.2107C24.9687 40.1265 25.0688 40.06 25.1789 40.015C25.2891 39.9701 25.4071 39.9477 25.526 39.9491C25.645 39.9506 25.7624 39.9758 25.8715 40.0233C25.9805 40.0708 26.0789 40.1397 26.161 40.2259L29.0975 43.1601V27.4884C29.0975 26.9982 29.4985 26.5972 29.9887 26.5972ZM24.6415 51.9964C24.6415 51.76 24.7354 51.5333 24.9025 51.3662C25.0696 51.1991 25.2963 51.1052 25.5327 51.1052H56.7247C56.961 51.1052 57.1877 51.1991 57.3548 51.3662C57.522 51.5333 57.6159 51.76 57.6159 51.9964C57.6159 52.2327 57.522 52.4594 57.3548 52.6266C57.1877 52.7937 56.961 52.8876 56.7247 52.8876H25.5327C25.2963 52.8876 25.0696 52.7937 24.9025 52.6266C24.7354 52.4594 24.6415 52.2327 24.6415 51.9964Z"/>
</mask>
<path fill-rule="evenodd" clip-rule="evenodd" d="M47.8127 25.8174C48.0416 25.8175 48.265 25.8881 48.4523 26.0197C48.6397 26.1512 48.782 26.3373 48.8598 26.5526L55.5438 45.0896C55.5984 45.2282 55.6247 45.3763 55.621 45.5252C55.6174 45.6741 55.5839 45.8207 55.5226 45.9565C55.4613 46.0922 55.3734 46.2143 55.2641 46.3155C55.1548 46.4167 55.0264 46.4949 54.8863 46.5456C54.7462 46.5962 54.5974 46.6183 54.4487 46.6104C54.2999 46.6026 54.1543 46.565 54.0203 46.4999C53.8864 46.4347 53.7668 46.3434 53.6688 46.2313C53.5707 46.1192 53.4962 45.9885 53.4495 45.8471L51.2616 39.778H44.3637L42.1758 45.8471C42.0678 46.1141 41.8605 46.3289 41.5975 46.4463C41.3345 46.5638 41.0362 46.5748 40.7653 46.4771C40.4943 46.3794 40.2717 46.1805 40.1443 45.9222C40.0168 45.6639 39.9943 45.3663 40.0815 45.0918L46.7655 26.5549C46.8433 26.3395 46.9856 26.1535 47.173 26.0219C47.3604 25.8903 47.5837 25.8197 47.8127 25.8196M47.8127 30.2177L50.5776 37.8865H45.0499L47.8127 30.2177ZM29.9887 26.5972C30.4788 26.5972 30.8799 26.9982 30.8799 27.4884V43.1601L33.8141 40.2259C33.9828 40.0659 34.2072 39.9782 34.4396 39.9814C34.672 39.9846 34.8939 40.0784 35.0581 40.2429C35.2223 40.4074 35.3158 40.6295 35.3185 40.8619C35.3213 41.0943 35.2332 41.3186 35.073 41.4869L30.617 45.9429C30.4499 46.1096 30.2235 46.2032 29.9875 46.2032C29.7516 46.2032 29.5252 46.1096 29.3581 45.9429L24.9021 41.4869C24.8158 41.405 24.7468 41.3067 24.6991 41.1978C24.6513 41.0888 24.6259 40.9714 24.6243 40.8525C24.6227 40.7335 24.6449 40.6155 24.6896 40.5052C24.7343 40.395 24.8006 40.2948 24.8847 40.2107C24.9687 40.1265 25.0688 40.06 25.1789 40.015C25.2891 39.9701 25.4071 39.9477 25.526 39.9491C25.645 39.9506 25.7624 39.9758 25.8715 40.0233C25.9805 40.0708 26.0789 40.1397 26.161 40.2259L29.0975 43.1601V27.4884C29.0975 26.9982 29.4985 26.5972 29.9887 26.5972ZM24.6415 51.9964C24.6415 51.76 24.7354 51.5333 24.9025 51.3662C25.0696 51.1991 25.2963 51.1052 25.5327 51.1052H56.7247C56.961 51.1052 57.1877 51.1991 57.3548 51.3662C57.522 51.5333 57.6159 51.76 57.6159 51.9964C57.6159 52.2327 57.522 52.4594 57.3548 52.6266C57.1877 52.7937 56.961 52.8876 56.7247 52.8876H25.5327C25.2963 52.8876 25.0696 52.7937 24.9025 52.6266C24.7354 52.4594 24.6415 52.2327 24.6415 51.9964Z" fill="white"/>
<path d="M48.8598 26.5526L49.8005 26.2134L49.8002 26.2126L48.8598 26.5526ZM55.5438 45.0896L54.6031 45.4288L54.6081 45.4426L54.6134 45.4562L55.5438 45.0896ZM53.4495 45.8471L54.3991 45.5337L54.3949 45.5208L54.3902 45.508L53.4495 45.8471ZM51.2616 39.778L52.2023 39.4389L51.9641 38.778H51.2616V39.778ZM44.3637 39.778V38.778H43.6612L43.423 39.4389L44.3637 39.778ZM42.1758 45.8471L43.1028 46.2223L43.11 46.2044L43.1166 46.1862L42.1758 45.8471ZM40.0815 45.0918L39.1408 44.7526L39.1343 44.7707L39.1285 44.789L40.0815 45.0918ZM46.7655 26.5549L45.8251 26.2149L45.8248 26.2157L46.7655 26.5549ZM47.8127 30.2177L48.7534 29.8785L47.8123 27.2683L46.8718 29.8788L47.8127 30.2177ZM50.5776 37.8865V38.8865H52.0012L51.5183 37.5473L50.5776 37.8865ZM45.0499 37.8865L44.1091 37.5475L43.6268 38.8865H45.0499V37.8865ZM30.8799 43.1601H29.8799V45.5743L31.587 43.8672L30.8799 43.1601ZM33.8141 40.2259L33.126 39.5003L33.1164 39.5094L33.107 39.5188L33.8141 40.2259ZM35.073 41.4869L35.7801 42.194L35.7888 42.1853L35.7973 42.1763L35.073 41.4869ZM30.617 45.9429L31.3232 46.6509L31.3241 46.65L30.617 45.9429ZM29.3581 45.9429L28.651 46.65L28.6519 46.6509L29.3581 45.9429ZM24.9021 41.4869L25.6092 40.7798L25.5999 40.7704L25.5903 40.7613L24.9021 41.4869ZM26.161 40.2259L25.4366 40.9153L25.4452 40.9244L25.4541 40.9332L26.161 40.2259ZM29.0975 43.1601L28.3906 43.8675L30.0975 45.5731V43.1601H29.0975ZM24.6415 51.9964H23.6415H24.6415ZM25.5327 51.1052V52.1052V51.1052ZM47.8122 26.8174C47.8357 26.8174 47.8585 26.8246 47.8777 26.8381L49.027 25.2013C48.6714 24.9516 48.2475 24.8176 47.8131 24.8174L47.8122 26.8174ZM47.8777 26.8381C47.8969 26.8515 47.9114 26.8706 47.9194 26.8926L49.8002 26.2126C49.6525 25.804 49.3825 25.4509 49.027 25.2013L47.8777 26.8381ZM47.9191 26.8918L54.6031 45.4288L56.4845 44.7504L49.8005 26.2134L47.9191 26.8918ZM54.6134 45.4562C54.619 45.4704 54.6217 45.4855 54.6213 45.5008L56.6207 45.5496C56.6276 45.267 56.5778 44.986 56.4742 44.723L54.6134 45.4562ZM54.6213 45.5008C54.621 45.516 54.6175 45.531 54.6113 45.5449L56.434 46.3681C56.5503 46.1105 56.6138 45.8322 56.6207 45.5496L54.6213 45.5008ZM54.6113 45.5449C54.605 45.5588 54.596 45.5713 54.5848 45.5816L55.9435 47.0493C56.1509 46.8573 56.3177 46.6257 56.434 46.3681L54.6113 45.5449ZM54.5848 45.5816C54.5736 45.592 54.5605 45.6 54.5462 45.6052L55.2264 47.4859C55.4922 47.3898 55.736 47.2413 55.9435 47.0493L54.5848 45.5816ZM54.5462 45.6052C54.5318 45.6104 54.5166 45.6126 54.5014 45.6118L54.396 47.609C54.6783 47.6239 54.9606 47.5821 55.2264 47.4859L54.5462 45.6052ZM54.5014 45.6118C54.4861 45.611 54.4712 45.6072 54.4575 45.6005L53.5831 47.3992C53.8373 47.5228 54.1138 47.5941 54.396 47.609L54.5014 45.6118ZM54.4575 45.6005C54.4438 45.5938 54.4316 45.5845 54.4216 45.573L52.916 46.8896C53.1021 47.1024 53.3289 47.2757 53.5831 47.3992L54.4575 45.6005ZM54.4216 45.573C54.4115 45.5615 54.4039 45.5482 54.3991 45.5337L52.4999 46.1605C52.5885 46.4289 52.73 46.6768 52.916 46.8896L54.4216 45.573ZM54.3902 45.508L52.2023 39.4389L50.3209 40.1172L52.5088 46.1862L54.3902 45.508ZM51.2616 38.778H44.3637V40.778H51.2616V38.778ZM43.423 39.4389L41.2351 45.508L43.1166 46.1862L45.3045 40.1172L43.423 39.4389ZM41.2489 45.4719C41.2378 45.4993 41.2166 45.5212 41.1897 45.5332L42.0053 47.3594C42.5044 47.1365 42.8977 46.7289 43.1028 46.2223L41.2489 45.4719ZM41.1897 45.5332C41.1628 45.5453 41.1322 45.5464 41.1045 45.5364L40.426 47.4178C40.9402 47.6032 41.5062 47.5823 42.0053 47.3594L41.1897 45.5332ZM41.1045 45.5364C41.0768 45.5264 41.054 45.506 41.041 45.4796L39.2475 46.3648C39.4895 46.855 39.9118 47.2324 40.426 47.4178L41.1045 45.5364ZM41.041 45.4796C41.0279 45.4532 41.0256 45.4227 41.0345 45.3946L39.1285 44.789C38.9629 45.3099 39.0056 45.8747 39.2475 46.3648L41.041 45.4796ZM41.0222 45.431L47.7062 26.8941L45.8248 26.2157L39.1408 44.7526L41.0222 45.431ZM47.7059 26.8949C47.7139 26.8728 47.7284 26.8538 47.7476 26.8403L46.5984 25.2035C46.2428 25.4531 45.9728 25.8063 45.8251 26.2149L47.7059 26.8949ZM47.7476 26.8403C47.7668 26.8268 47.7897 26.8196 47.8131 26.8196L47.8122 24.8196C47.3778 24.8198 46.9539 24.9538 46.5984 25.2035L47.7476 26.8403ZM46.8719 30.5569L49.6369 38.2256L51.5183 37.5473L48.7534 29.8785L46.8719 30.5569ZM50.5776 36.8865H45.0499V38.8865H50.5776V36.8865ZM45.9907 38.2254L48.7535 30.5566L46.8718 29.8788L44.1091 37.5475L45.9907 38.2254ZM29.9887 27.5972C29.9556 27.5972 29.9276 27.5828 29.911 27.5661C29.8943 27.5494 29.8799 27.5214 29.8799 27.4884H31.8799C31.8799 26.4459 31.0311 25.5972 29.9887 25.5972V27.5972ZM29.8799 27.4884V43.1601H31.8799V27.4884H29.8799ZM31.587 43.8672L34.5212 40.933L33.107 39.5188L30.1728 42.453L31.587 43.8672ZM34.5023 40.9514C34.4817 40.971 34.4543 40.9817 34.4259 40.9813L34.4533 38.9815C33.9601 38.9747 33.4838 39.1609 33.126 39.5003L34.5023 40.9514ZM34.4259 40.9813C34.3975 40.9809 34.3705 40.9694 34.3504 40.9494L35.7659 39.5364C35.4174 39.1873 34.9464 38.9882 34.4533 38.9815L34.4259 40.9813ZM34.3504 40.9494C34.3304 40.9293 34.319 40.9022 34.3186 40.8738L36.3185 40.85C36.3126 40.3568 36.1143 39.8854 35.7659 39.5364L34.3504 40.9494ZM34.3186 40.8738C34.3183 40.8454 34.329 40.818 34.3486 40.7975L35.7973 42.1763C36.1373 41.8191 36.3243 41.3431 36.3185 40.85L34.3186 40.8738ZM34.3658 40.7798L29.9098 45.2358L31.3241 46.65L35.7801 42.194L34.3658 40.7798ZM29.9107 45.2349C29.9311 45.2146 29.9587 45.2032 29.9875 45.2032V47.2032C30.4883 47.2032 30.9687 47.0045 31.3232 46.6509L29.9107 45.2349ZM29.9875 45.2032C30.0164 45.2032 30.044 45.2146 30.0644 45.2349L28.6519 46.6509C29.0064 47.0045 29.4868 47.2032 29.9875 47.2032V45.2032ZM30.0652 45.2358L25.6092 40.7798L24.195 42.194L28.651 46.65L30.0652 45.2358ZM25.5903 40.7613C25.6008 40.7713 25.6092 40.7833 25.6151 40.7966L23.783 41.5989C23.8843 41.8302 24.0308 42.0388 24.214 42.2125L25.5903 40.7613ZM25.6151 40.7966C25.6209 40.8099 25.624 40.8243 25.6242 40.8388L23.6244 40.8661C23.6278 41.1185 23.6818 41.3677 23.783 41.5989L25.6151 40.7966ZM25.6242 40.8388C25.6244 40.8533 25.6217 40.8677 25.6162 40.8812L23.7629 40.1293C23.668 40.3632 23.6209 40.6137 23.6244 40.8661L25.6242 40.8388ZM25.6162 40.8812C25.6108 40.8946 25.6027 40.9069 25.5924 40.9171L24.1769 39.5042C23.9986 39.6828 23.8578 39.8954 23.7629 40.1293L25.6162 40.8812ZM25.5924 40.9171C25.5821 40.9274 25.5699 40.9355 25.5565 40.941L24.8013 39.0891C24.5676 39.1844 24.3553 39.3255 24.1769 39.5042L25.5924 40.9171ZM25.5565 40.941C25.543 40.9465 25.5286 40.9492 25.5141 40.9491L25.5379 38.9492C25.2855 38.9462 25.0351 38.9938 24.8013 39.0891L25.5565 40.941ZM25.5141 40.9491C25.4996 40.9489 25.4852 40.9458 25.4719 40.94L26.271 39.1066C26.0396 39.0057 25.7903 38.9522 25.5379 38.9492L25.5141 40.9491ZM25.4719 40.94C25.4586 40.9342 25.4466 40.9258 25.4366 40.9153L26.8853 39.5364C26.7113 39.3536 26.5024 39.2074 26.271 39.1066L25.4719 40.94ZM25.4541 40.9332L28.3906 43.8675L29.8043 42.4528L26.8678 39.5185L25.4541 40.9332ZM30.0975 43.1601V27.4884H28.0975V43.1601H30.0975ZM30.0975 27.4884C30.0975 27.5214 30.083 27.5494 30.0664 27.5661C30.0497 27.5828 30.0217 27.5972 29.9887 27.5972V25.5972C28.9462 25.5972 28.0975 26.4459 28.0975 27.4884H30.0975ZM25.6415 51.9964C25.6415 52.0252 25.63 52.0529 25.6096 52.0733L24.1954 50.6591C23.8407 51.0138 23.6415 51.4948 23.6415 51.9964H25.6415ZM25.6096 52.0733C25.5892 52.0937 25.5615 52.1052 25.5327 52.1052V50.1052C25.0311 50.1052 24.55 50.3044 24.1954 50.6591L25.6096 52.0733ZM25.5327 52.1052H56.7247V50.1052H25.5327V52.1052ZM56.7247 52.1052C56.6958 52.1052 56.6681 52.0937 56.6477 52.0733L58.0619 50.6591C57.7073 50.3044 57.2262 50.1052 56.7247 50.1052V52.1052ZM56.6477 52.0733C56.6273 52.0529 56.6159 52.0252 56.6159 51.9964H58.6159C58.6159 51.4948 58.4166 51.0138 58.0619 50.6591L56.6477 52.0733ZM56.6159 51.9964C56.6159 51.9675 56.6273 51.9399 56.6477 51.9194L58.0619 53.3337C58.4166 52.979 58.6159 52.498 58.6159 51.9964H56.6159ZM56.6477 51.9194C56.6681 51.899 56.6958 51.8876 56.7247 51.8876V53.8876C57.2262 53.8876 57.7073 53.6883 58.0619 53.3337L56.6477 51.9194ZM56.7247 51.8876H25.5327V53.8876H56.7247V51.8876ZM25.5327 51.8876C25.5615 51.8876 25.5892 51.899 25.6096 51.9194L24.1954 53.3337C24.55 53.6883 25.0311 53.8876 25.5327 53.8876V51.8876ZM25.6096 51.9194C25.63 51.9399 25.6415 51.9675 25.6415 51.9964H23.6415C23.6415 52.498 23.8407 52.979 24.1954 53.3337L25.6096 51.9194Z" fill="white" mask="url(#path-2-outside-1_6797_89722)"/>
</g>
<defs>
<filter id="filter0_d_6797_89722" x="0.980804" y="0.822669" width="81.8757" height="81.8758" filterUnits="userSpaceOnUse" color-interpolation-filters="sRGB">
<feFlood flood-opacity="0" result="BackgroundImageFix"/>
<feColorMatrix in="SourceAlpha" type="matrix" values="0 0 0 0 0 0 0 0 0 0 0 0 0 0 0 0 0 0 127 0" result="hardAlpha"/>
<feOffset dy="3.34186"/>
<feGaussianBlur stdDeviation="3.7596"/>
<feComposite in2="hardAlpha" operator="out"/>
<feColorMatrix type="matrix" values="0 0 0 0 0 0 0 0 0 0 0 0 0 0 0 0 0 0 0.25 0"/>
<feBlend mode="normal" in2="BackgroundImageFix" result="effect1_dropShadow_6797_89722"/>
<feBlend mode="normal" in="SourceGraphic" in2="effect1_dropShadow_6797_89722" result="shape"/>
</filter>
</defs>
</svg>
