<svg width="48" height="49" viewBox="0 0 48 49" fill="none" xmlns="http://www.w3.org/2000/svg">
<rect y="0.5" width="48" height="48" rx="5" fill="#E5E7F4"/>
<path d="M25.576 29.7711L20.466 26.9841C19.9755 27.471 19.3518 27.8018 18.6736 27.9347C17.9954 28.0677 17.293 27.9969 16.6549 27.7312C16.0169 27.4655 15.4718 27.0169 15.0884 26.4419C14.7049 25.8669 14.5003 25.1912 14.5003 24.5001C14.5003 23.809 14.7049 23.1333 15.0884 22.5583C15.4718 21.9833 16.0169 21.5347 16.6549 21.269C17.293 21.0033 17.9954 20.9325 18.6736 21.0655C19.3518 21.1984 19.9755 21.5292 20.466 22.0161L25.576 19.2291C25.4008 18.4068 25.5273 17.549 25.9326 16.8124C26.3379 16.0758 26.9948 15.5096 27.7831 15.2175C28.5715 14.9254 29.4386 14.9269 30.226 15.2216C31.0134 15.5163 31.6684 16.0846 32.0712 16.8225C32.4741 17.5605 32.5978 18.4188 32.4198 19.2405C32.2418 20.0621 31.774 20.7923 31.1019 21.2974C30.4298 21.8025 29.5984 22.0488 28.7596 21.9913C27.9209 21.9338 27.1308 21.5763 26.534 20.9841L21.424 23.7711C21.5258 24.2514 21.5258 24.7478 21.424 25.2281L26.534 28.0161C27.1308 27.424 27.9209 27.0664 28.7596 27.0089C29.5984 26.9514 30.4298 27.1977 31.1019 27.7028C31.774 28.2079 32.2418 28.9381 32.4198 29.7598C32.5978 30.5814 32.4741 31.4397 32.0712 32.1777C31.6684 32.9156 31.0134 33.4839 30.226 33.7786C29.4386 34.0733 28.5715 34.0748 27.7831 33.7827C26.9948 33.4906 26.3379 32.9245 25.9326 32.1879C25.5273 31.4513 25.4008 30.5934 25.576 29.7711Z" fill="#041492"/>
</svg>
