<svg width="57" height="60" viewBox="0 0 57 60" fill="none" xmlns="http://www.w3.org/2000/svg">
<g clip-path="url(#clip0_7060_1539)">
<path d="M35.9324 40.0986C34.9412 40.0986 34.0987 39.7517 33.4048 39.0578C32.711 38.364 32.3641 37.5214 32.3641 36.5302C32.3641 36.3915 32.374 36.2475 32.3938 36.0985C32.4136 35.9494 32.4434 35.8158 32.483 35.6976L24.0973 30.8208C23.7603 31.1182 23.3837 31.3513 22.9674 31.5202C22.551 31.6891 22.1149 31.7732 21.6589 31.7724C20.6677 31.7724 19.8252 31.4255 19.1314 30.7316C18.4375 30.0378 18.0906 29.1952 18.0906 28.204C18.0906 27.2128 18.4375 26.3703 19.1314 25.6764C19.8252 24.9826 20.6677 24.6357 21.6589 24.6357C22.1149 24.6357 22.551 24.7201 22.9674 24.889C23.3837 25.0579 23.7603 25.2906 24.0973 25.5872L32.483 20.7104C32.4434 20.5915 32.4136 20.4579 32.3938 20.3096C32.374 20.1613 32.3641 20.0174 32.3641 19.8778C32.3641 18.8866 32.711 18.0441 33.4048 17.3502C34.0987 16.6564 34.9412 16.3094 35.9324 16.3094C36.9237 16.3094 37.7662 16.6564 38.46 17.3502C39.1539 18.0441 39.5008 18.8866 39.5008 19.8778C39.5008 20.869 39.1539 21.7116 38.46 22.4054C37.7662 23.0993 36.9237 23.4462 35.9324 23.4462C35.4765 23.4462 35.0403 23.3621 34.624 23.194C34.2077 23.0259 33.8311 22.7928 33.4941 22.4946L25.1084 27.3714C25.148 27.4904 25.1778 27.6244 25.1976 27.7734C25.2174 27.9225 25.2273 28.0661 25.2273 28.204C25.2273 28.3428 25.2174 28.4867 25.1976 28.6358C25.1778 28.7849 25.148 28.9185 25.1084 29.0366L33.4941 33.9134C33.8311 33.6161 34.2077 33.3833 34.624 33.2152C35.0403 33.0471 35.4765 32.9627 35.9324 32.9619C36.9237 32.9619 37.7662 33.3088 38.46 34.0026C39.1539 34.6965 39.5008 35.539 39.5008 36.5302C39.5008 37.5214 39.1539 38.364 38.46 39.0578C37.7662 39.7517 36.9237 40.0986 35.9324 40.0986Z" fill="#F8931F"/>
</g>
<rect x="-0.0774894" y="0.702848" width="39.1284" height="39.1284" rx="19.5642" transform="matrix(-0.780337 0.625359 0.625359 0.780337 31.3279 0.202848)" stroke="black" stroke-opacity="0.17"/>
<path d="M17.5598 59.5523C17.0078 59.5523 16.4958 59.4483 16.0238 59.2403C15.5518 59.0243 15.1438 58.7403 14.7998 58.3883L15.3998 57.6923C15.6798 57.9883 16.0078 58.2283 16.3838 58.4123C16.7678 58.5883 17.1638 58.6763 17.5718 58.6763C18.0918 58.6763 18.4958 58.5603 18.7838 58.3283C19.0718 58.0883 19.2158 57.7763 19.2158 57.3923C19.2158 57.1203 19.1558 56.9043 19.0358 56.7443C18.9238 56.5843 18.7678 56.4483 18.5678 56.3363C18.3758 56.2243 18.1558 56.1123 17.9078 56.0003L16.7798 55.5083C16.5318 55.4043 16.2838 55.2683 16.0358 55.1003C15.7958 54.9323 15.5918 54.7163 15.4238 54.4523C15.2638 54.1883 15.1838 53.8643 15.1838 53.4803C15.1838 53.0803 15.2878 52.7243 15.4958 52.4123C15.7118 52.0923 16.0078 51.8443 16.3838 51.6683C16.7598 51.4843 17.1838 51.3923 17.6558 51.3923C18.1278 51.3923 18.5638 51.4843 18.9638 51.6683C19.3638 51.8443 19.7038 52.0763 19.9838 52.3643L19.4438 53.0123C19.2038 52.7803 18.9358 52.6003 18.6398 52.4723C18.3518 52.3363 18.0238 52.2683 17.6558 52.2683C17.2158 52.2683 16.8598 52.3723 16.5878 52.5803C16.3238 52.7883 16.1918 53.0683 16.1918 53.4203C16.1918 53.6683 16.2558 53.8763 16.3838 54.0443C16.5198 54.2043 16.6878 54.3363 16.8878 54.4403C17.0878 54.5443 17.2918 54.6403 17.4998 54.7283L18.6158 55.2083C18.9198 55.3363 19.1918 55.4923 19.4318 55.6763C19.6798 55.8523 19.8758 56.0723 20.0198 56.3363C20.1638 56.5923 20.2358 56.9163 20.2358 57.3083C20.2358 57.7243 20.1278 58.1043 19.9118 58.4483C19.6958 58.7843 19.3878 59.0523 18.9878 59.2523C18.5878 59.4523 18.1118 59.5523 17.5598 59.5523ZM21.6899 59.4083V50.8643H22.6739V53.1923L22.6379 54.3923C22.9179 54.1283 23.2099 53.9043 23.5139 53.7203C23.8259 53.5283 24.1819 53.4323 24.5819 53.4323C25.1979 53.4323 25.6459 53.6283 25.9259 54.0203C26.2139 54.4043 26.3579 54.9683 26.3579 55.7123V59.4083H25.3739V55.8443C25.3739 55.3003 25.2859 54.9043 25.1099 54.6563C24.9339 54.4083 24.6539 54.2843 24.2699 54.2843C23.9739 54.2843 23.7059 54.3603 23.4659 54.5123C23.2339 54.6643 22.9699 54.8883 22.6739 55.1843V59.4083H21.6899ZM29.5613 59.5523C29.0733 59.5523 28.6653 59.4083 28.3373 59.1203C28.0173 58.8243 27.8573 58.4163 27.8573 57.8963C27.8573 57.2563 28.1413 56.7683 28.7093 56.4323C29.2853 56.0883 30.1933 55.8483 31.4333 55.7123C31.4333 55.4643 31.3973 55.2283 31.3253 55.0043C31.2613 54.7803 31.1413 54.6003 30.9653 54.4643C30.7973 54.3203 30.5533 54.2483 30.2333 54.2483C29.8973 54.2483 29.5813 54.3123 29.2853 54.4403C28.9893 54.5683 28.7253 54.7123 28.4933 54.8723L28.1093 54.1883C28.3813 54.0123 28.7133 53.8443 29.1053 53.6843C29.5053 53.5163 29.9373 53.4323 30.4013 53.4323C31.1133 53.4323 31.6293 53.6523 31.9493 54.0923C32.2693 54.5243 32.4293 55.1043 32.4293 55.8323V59.4083H31.6133L31.5293 58.7123H31.4933C31.2213 58.9363 30.9213 59.1323 30.5933 59.3003C30.2733 59.4683 29.9293 59.5523 29.5613 59.5523ZM29.8493 58.7603C30.1293 58.7603 30.3933 58.6923 30.6413 58.5563C30.8893 58.4203 31.1533 58.2283 31.4333 57.9803V56.3603C30.4653 56.4803 29.7853 56.6603 29.3933 56.9003C29.0093 57.1403 28.8173 57.4483 28.8173 57.8243C28.8173 58.1523 28.9173 58.3923 29.1173 58.5443C29.3173 58.6883 29.5613 58.7603 29.8493 58.7603ZM34.2642 59.4083V53.5763H35.0802L35.1642 54.6323H35.2002C35.4002 54.2643 35.6442 53.9723 35.9322 53.7563C36.2202 53.5403 36.5282 53.4323 36.8562 53.4323C37.0882 53.4323 37.2962 53.4723 37.4802 53.5523L37.2882 54.4163C37.1922 54.3843 37.1042 54.3603 37.0242 54.3443C36.9442 54.3283 36.8442 54.3203 36.7242 54.3203C36.4762 54.3203 36.2162 54.4203 35.9442 54.6203C35.6802 54.8203 35.4482 55.1683 35.2482 55.6643V59.4083H34.2642ZM40.6711 59.5523C40.1511 59.5523 39.6791 59.4323 39.2551 59.1923C38.8311 58.9443 38.4951 58.5923 38.2471 58.1363C37.9991 57.6803 37.8751 57.1363 37.8751 56.5043C37.8751 55.8643 37.9991 55.3163 38.2471 54.8603C38.5031 54.4043 38.8311 54.0523 39.2311 53.8043C39.6311 53.5563 40.0511 53.4323 40.4911 53.4323C41.2351 53.4323 41.8071 53.6803 42.2071 54.1763C42.6151 54.6723 42.8191 55.3363 42.8191 56.1683C42.8191 56.2723 42.8151 56.3763 42.8071 56.4803C42.8071 56.5763 42.7991 56.6603 42.7831 56.7323H38.8471C38.8871 57.3483 39.0791 57.8403 39.4231 58.2083C39.7751 58.5763 40.2311 58.7603 40.7911 58.7603C41.0711 58.7603 41.3271 58.7203 41.5591 58.6403C41.7991 58.5523 42.0271 58.4403 42.2431 58.3043L42.5911 58.9523C42.3431 59.1123 42.0591 59.2523 41.7391 59.3723C41.4271 59.4923 41.0711 59.5523 40.6711 59.5523ZM38.8351 56.0243H41.9551C41.9551 55.4323 41.8271 54.9843 41.5711 54.6803C41.3231 54.3683 40.9711 54.2123 40.5151 54.2123C40.1071 54.2123 39.7391 54.3723 39.4111 54.6923C39.0911 55.0043 38.8991 55.4483 38.8351 56.0243Z" fill="#D2D2D2"/>
<defs>
<clipPath id="clip0_7060_1539">
<rect width="40.1284" height="40.1284" rx="20.0642" transform="matrix(-0.780337 0.625359 0.625359 0.780337 31.9054 0)" fill="white"/>
</clipPath>
</defs>
</svg>
