<svg width="57" height="57" viewBox="0 0 57 57" fill="none" xmlns="http://www.w3.org/2000/svg">
<rect x="-0.0867642" y="0.786972" width="38.7632" height="38.632" rx="19.316" transform="matrix(-0.780337 0.625359 0.625359 0.780337 30.9756 1.13924)" stroke="black" stroke-opacity="0.17" stroke-width="1.11969"/>
<path d="M26.0599 19.9074C25.6037 19.8209 25.2328 20.1182 25.2178 20.5823C25.2033 21.0307 25.5581 21.4734 25.9984 21.5563L34.2668 23.1237L20.1763 34.4158C19.8478 34.679 19.8227 35.2001 20.1303 35.5839C20.4379 35.9677 20.9599 36.0667 21.2883 35.8034L35.3789 24.5113L35.0998 32.9133C35.0928 33.3711 35.4481 33.8144 35.8884 33.8973C36.3446 33.9838 36.7155 33.6866 36.7305 33.2224L37.0664 22.8199C37.0809 22.3714 36.7261 21.9287 36.2858 21.8458L26.0599 19.9074Z" fill="#041492"/>
</svg>
