<svg width="48" height="48" viewBox="0 0 48 48" fill="none" xmlns="http://www.w3.org/2000/svg">
<rect width="48" height="48" rx="5" fill="#E5E7F4"/>
<path d="M19.5892 16.744C19.4329 16.5878 19.221 16.5 19 16.5C18.779 16.5 18.5671 16.5878 18.4108 16.744L17.3333 17.8215L17.0892 17.5773C16.932 17.4255 16.7215 17.3415 16.503 17.3434C16.2845 17.3453 16.0755 17.433 15.921 17.5875C15.7665 17.742 15.6788 17.951 15.6769 18.1695C15.675 18.388 15.759 18.5985 15.9108 18.7557L16.7442 19.589C16.9004 19.7452 17.1124 19.833 17.3333 19.833C17.5543 19.833 17.7662 19.7452 17.9225 19.589L19.5892 17.9223C19.7454 17.766 19.8332 17.5541 19.8332 17.3332C19.8332 17.1122 19.7454 16.9003 19.5892 16.744ZM31.5025 28.1607H22.3333L22.2358 28.1665C22.0249 28.1916 21.8316 28.2963 21.6952 28.4591C21.5589 28.622 21.4899 28.8308 21.5024 29.0428C21.5148 29.2549 21.6078 29.4541 21.7622 29.5999C21.9166 29.7458 22.1209 29.8271 22.3333 29.8273H31.5025L31.6 29.8223C31.8124 29.799 32.0078 29.695 32.1457 29.5317C32.2836 29.3685 32.3535 29.1585 32.341 28.9451C32.3285 28.7318 32.2345 28.5314 32.0784 28.3854C31.9224 28.2394 31.7162 28.159 31.5025 28.1607ZM31.5025 23.1665H22.3333L22.2358 23.1723C22.0249 23.1974 21.8316 23.3021 21.6952 23.465C21.5589 23.6278 21.4899 23.8366 21.5024 24.0487C21.5148 24.2607 21.6078 24.46 21.7622 24.6058C21.9166 24.7516 22.1209 24.8329 22.3333 24.8332H31.5025L31.6 24.8273C31.8109 24.8022 32.0043 24.6976 32.1406 24.5347C32.2769 24.3718 32.3459 24.163 32.3335 23.951C32.321 23.7389 32.2281 23.5397 32.0736 23.3939C31.9192 23.2481 31.7149 23.1667 31.5025 23.1665ZM31.5025 18.1665H22.3333L22.2358 18.1723C22.0249 18.1974 21.8316 18.3021 21.6952 18.465C21.5589 18.6278 21.4899 18.8366 21.5024 19.0487C21.5148 19.2607 21.6078 19.46 21.7622 19.6058C21.9166 19.7516 22.1209 19.8329 22.3333 19.8332H31.5025L31.6 19.8273C31.8109 19.8022 32.0043 19.6976 32.1406 19.5347C32.2769 19.3718 32.3459 19.163 32.3335 18.951C32.321 18.7389 32.2281 18.5397 32.0736 18.3939C31.9192 18.2481 31.7149 18.1667 31.5025 18.1665ZM19.5892 27.5773C19.4329 27.4211 19.221 27.3333 19 27.3333C18.779 27.3333 18.5671 27.4211 18.4108 27.5773L17.3333 28.6548L17.0892 28.4107C16.932 28.2589 16.7215 28.1749 16.503 28.1768C16.2845 28.1787 16.0755 28.2663 15.921 28.4208C15.7665 28.5753 15.6788 28.7843 15.6769 29.0028C15.675 29.2213 15.759 29.4318 15.9108 29.589L16.7442 30.4223C16.9004 30.5785 17.1124 30.6663 17.3333 30.6663C17.5543 30.6663 17.7662 30.5785 17.9225 30.4223L19.5892 28.7557C19.7454 28.5994 19.8332 28.3875 19.8332 28.1665C19.8332 27.9455 19.7454 27.7336 19.5892 27.5773ZM18.4108 22.1607C18.568 22.0089 18.7785 21.9249 18.997 21.9268C19.2155 21.9287 19.4245 22.0163 19.579 22.1708C19.7335 22.3253 19.8212 22.5343 19.8231 22.7528C19.825 22.9713 19.741 23.1818 19.5892 23.339L17.9225 25.0057C17.7662 25.1619 17.5543 25.2496 17.3333 25.2496C17.1124 25.2496 16.9004 25.1619 16.7442 25.0057L15.9108 24.1723C15.8312 24.0954 15.7678 24.0035 15.7241 23.9018C15.6804 23.8002 15.6574 23.6908 15.6565 23.5802C15.6555 23.4695 15.6766 23.3598 15.7185 23.2574C15.7604 23.1549 15.8223 23.0619 15.9005 22.9837C15.9788 22.9054 16.0718 22.8435 16.1742 22.8016C16.2766 22.7597 16.3864 22.7387 16.497 22.7396C16.6077 22.7406 16.717 22.7636 16.8187 22.8072C16.9203 22.8509 17.0123 22.9144 17.0892 22.994L17.3333 23.2382L18.4108 22.1607Z" fill="#041492"/>
</svg>
