<svg width="48" height="48" viewBox="0 0 48 48" fill="none" xmlns="http://www.w3.org/2000/svg">
<rect width="48" height="48" rx="5" fill="#E5E7F4"/>
<g clip-path="url(#clip0_6642_65131)">
<path d="M18.9988 17.3333H26.4987C26.7287 17.3333 26.9154 17.1466 26.9154 16.9166V16.0833C26.9154 15.3941 26.3554 14.8333 25.6654 14.8333H24.1871C23.8921 14.325 23.3463 14 22.7488 14C22.1513 14 21.6055 14.325 21.3105 14.8333H19.8322C19.1439 14.8333 18.5822 15.3941 18.5822 16.0833V16.9166C18.5822 17.1466 18.7689 17.3333 18.9988 17.3333Z" fill="#041492"/>
<path d="M28.1654 24.833C25.6388 24.833 23.5822 26.8888 23.5822 29.4162C23.5822 31.9437 25.6397 33.9995 28.1654 33.9995C30.6912 33.9995 32.7487 31.9437 32.7487 29.4163C32.7487 26.8888 30.6921 24.833 28.1654 24.833ZM30.9604 28.0446L27.6271 31.3779C27.5455 31.4587 27.4388 31.4996 27.3321 31.4996C27.2255 31.4996 27.1188 31.4587 27.0371 31.3779L25.3705 29.7112C25.208 29.5487 25.208 29.2846 25.3705 29.1221C25.533 28.9596 25.7972 28.9596 25.9597 29.1221L27.3321 30.4937L30.3704 27.4555C30.5329 27.293 30.7971 27.293 30.9596 27.4555C31.1212 27.618 31.1229 27.8813 30.9604 28.0446Z" fill="#041492"/>
<path d="M24.32 33.2267C23.3075 32.205 22.75 30.8551 22.75 29.4168C22.75 26.4301 25.18 24.0002 28.1666 24.0002C28.6866 24.0002 29.2074 24.0769 29.7141 24.2277C29.8408 24.2669 29.9774 24.2419 30.0816 24.1627C30.1874 24.0844 30.2491 23.9602 30.2491 23.8285V16.917C30.2499 16.2278 29.6883 15.667 28.9999 15.667H28.1666C27.9366 15.667 27.7499 15.8537 27.7499 16.0837V16.917C27.7499 17.6062 27.1883 18.167 26.5 18.167H19.0001C18.3101 18.167 17.7501 17.6062 17.7501 16.917V16.0837C17.7501 15.8537 17.5635 15.667 17.3335 15.667H16.5002C15.8102 15.667 15.2502 16.2278 15.2502 16.917V32.75C15.2502 33.4392 15.8102 34 16.5002 34H24.0875C24.0933 34 24.1 34.0008 24.1042 34C24.3342 34 24.5209 33.8133 24.5209 33.5833C24.5208 33.4317 24.44 33.3 24.32 33.2267Z" fill="#041492"/>
</g>
<defs>
<clipPath id="clip0_6642_65131">
<rect width="20" height="20" fill="white" transform="translate(14 14)"/>
</clipPath>
</defs>
</svg>
