<svg width="48" height="49" viewBox="0 0 48 49" fill="none" xmlns="http://www.w3.org/2000/svg">
<rect y="0.5" width="48" height="48" rx="5" fill="#E5E7F4"/>
<path d="M24 22.5C25.0609 22.5 26.0783 22.0786 26.8284 21.3284C27.5786 20.5783 28 19.5609 28 18.5C28 17.4391 27.5786 16.4217 26.8284 15.6716C26.0783 14.9214 25.0609 14.5 24 14.5C22.9391 14.5 21.9217 14.9214 21.1716 15.6716C20.4214 16.4217 20 17.4391 20 18.5C20 19.5609 20.4214 20.5783 21.1716 21.3284C21.9217 22.0786 22.9391 22.5 24 22.5ZM17.5 25.5C18.163 25.5 18.7989 25.2366 19.2678 24.7678C19.7366 24.2989 20 23.663 20 23C20 22.337 19.7366 21.7011 19.2678 21.2322C18.7989 20.7634 18.163 20.5 17.5 20.5C16.837 20.5 16.2011 20.7634 15.7322 21.2322C15.2634 21.7011 15 22.337 15 23C15 23.663 15.2634 24.2989 15.7322 24.7678C16.2011 25.2366 16.837 25.5 17.5 25.5ZM33 23C33 23.663 32.7366 24.2989 32.2678 24.7678C31.7989 25.2366 31.163 25.5 30.5 25.5C29.837 25.5 29.2011 25.2366 28.7322 24.7678C28.2634 24.2989 28 23.663 28 23C28 22.337 28.2634 21.7011 28.7322 21.2322C29.2011 20.7634 29.837 20.5 30.5 20.5C31.163 20.5 31.7989 20.7634 32.2678 21.2322C32.7366 21.7011 33 22.337 33 23ZM24 23.5C25.3261 23.5 26.5979 24.0268 27.5355 24.9645C28.4732 25.9021 29 27.1739 29 28.5V34.5H19V28.5C19 27.1739 19.5268 25.9021 20.4645 24.9645C21.4021 24.0268 22.6739 23.5 24 23.5ZM17 28.5C17 27.807 17.1 27.138 17.288 26.506L17.118 26.52C16.2609 26.6141 15.4687 27.0213 14.8933 27.6635C14.3179 28.3057 13.9998 29.1377 14 30V34.5H17V28.5ZM34 34.5V30C34.0001 29.1084 33.6599 28.2503 33.0489 27.601C32.4378 26.9516 31.602 26.56 30.712 26.506C30.899 27.138 31 27.807 31 28.5V34.5H34Z" fill="#041492"/>
</svg>
