<svg width="48" height="48" viewBox="0 0 48 48" fill="none" xmlns="http://www.w3.org/2000/svg">
<rect width="48" height="48" rx="5" fill="#E5E7F4"/>
<g clip-path="url(#clip0_6642_65141)">
<path d="M24 34C29.5214 34 34 29.5214 34 24C34 18.4786 29.5214 14 24 14C18.4786 14 14 18.4786 14 24C14 29.5214 18.4786 34 24 34ZM23.2857 18.2857C23.2857 17.8929 23.6071 17.5714 24 17.5714C24.3929 17.5714 24.7143 17.8929 24.7143 18.2857V23.6572L28.0179 26.3C28.325 26.5464 28.375 26.9964 28.1286 27.3036C27.9893 27.4786 27.7822 27.5714 27.5714 27.5714C27.4143 27.5714 27.2571 27.5214 27.125 27.4143L23.5536 24.5572C23.3857 24.4214 23.2858 24.2179 23.2858 24V18.2857H23.2857Z" fill="#041492"/>
</g>
<defs>
<clipPath id="clip0_6642_65141">
<rect width="20" height="20" fill="white" transform="translate(14 14)"/>
</clipPath>
</defs>
</svg>
