<svg width="48" height="49" viewBox="0 0 48 49" fill="none" xmlns="http://www.w3.org/2000/svg">
<rect y="0.5" width="48" height="48" rx="5" fill="#E5E7F4"/>
<g clip-path="url(#clip0_3704_28325)">
<path d="M31.9109 21.4998H29.5228V19.4998H31.9109V17.4998H29.5228V15.4998H31.9109V13.4998L17.5822 13.4998V15.4998H19.9704V17.4998H17.5822V19.4998H19.9704V21.4998H17.5822V23.4998H19.9704V25.4998H17.5822L17.5822 27.4998H19.9704V29.4998H17.5822V31.4998H19.9704V33.4998H17.5822V35.4998H31.9109V33.4998H29.5228L29.5228 31.4998H31.9109V29.4998H29.5228V27.4998H31.9109V25.4998H29.5228V23.4998H31.9109V21.4998ZM27.1347 15.4998V17.4998L22.3585 17.4998V15.4998L27.1347 15.4998ZM27.1347 19.4998V21.4998H22.3585V19.4998L27.1347 19.4998ZM27.1347 23.4998V25.4998H22.3585V23.4998H27.1347ZM27.1347 27.4998V29.4998H22.3585V27.4998H27.1347ZM27.1347 31.4998L27.1347 33.4998H22.3585V31.4998H27.1347ZM37.8812 19.4998V23.4998H40.2693L36.6871 29.4998V25.4998H34.299L37.8812 19.4998Z" fill="#041492"/>
</g>
<defs>
<clipPath id="clip0_3704_28325">
<rect width="24" height="20" fill="white" transform="matrix(0 1 -1 0 34 12.5)"/>
</clipPath>
</defs>
</svg>
