<svg width="24" height="24" viewBox="0 0 24 24" fill="none" xmlns="http://www.w3.org/2000/svg">
<path d="M0.750751 11.625H1.50075V19.125H2.25075V11.625H3.98325L4.047 12.1387C4.07541 12.3609 4.16945 12.5694 4.31709 12.7378C4.46473 12.9061 4.65925 13.0266 4.87575 13.0837V13.8937C4.52766 13.9186 4.20369 14.0807 3.97513 14.3445C3.74657 14.6082 3.63214 14.9519 3.657 15.3C3.68187 15.6481 3.84399 15.9721 4.10772 16.2006C4.37144 16.4292 4.71516 16.5436 5.06325 16.5187H7.12575V16.9275C6.60501 17.0155 6.13182 17.2839 5.78903 17.6856C5.44624 18.0874 5.25569 18.5969 5.25075 19.125H6.00075C6.00183 18.7933 6.11283 18.4713 6.31638 18.2094C6.51994 17.9475 6.80457 17.7604 7.12575 17.6775V19.125H7.87575V17.6775C8.19693 17.7604 8.48156 17.9475 8.68512 18.2094C8.88868 18.4713 8.99968 18.7933 9.00075 19.125H9.75075C9.75021 18.5937 9.56166 18.0797 9.21848 17.674C8.87531 17.2684 8.39965 16.9973 7.87575 16.9088V16.5H9.93825C10.2863 16.5249 10.6301 16.4104 10.8938 16.1819C11.1575 15.9533 11.3196 15.6293 11.3445 15.2812C11.3694 14.9332 11.2549 14.5894 11.0264 14.3257C10.7978 14.062 10.4738 13.8999 10.1258 13.875V13.0837C10.3423 13.0266 10.5368 12.9061 10.6844 12.7378C10.832 12.5694 10.9261 12.3609 10.9545 12.1387L11.0183 11.625H16.5008V18.75C16.5008 18.8495 16.5403 18.9448 16.6106 19.0152C16.6809 19.0855 16.7763 19.125 16.8758 19.125H22.1258C22.2252 19.125 22.3206 19.0855 22.3909 19.0152C22.4612 18.9448 22.5008 18.8495 22.5008 18.75V11.625H23.2508C23.3178 11.6251 23.3836 11.6073 23.4414 11.5734C23.4991 11.5395 23.5468 11.4907 23.5793 11.4321C23.6119 11.3735 23.6281 11.3073 23.6264 11.2403C23.6247 11.1734 23.605 11.1081 23.5695 11.0512L21.6945 8.05125C21.6607 7.99721 21.6137 7.95266 21.558 7.92183C21.5022 7.89099 21.4395 7.87487 21.3758 7.875H20.2508V4.875C20.2508 4.77554 20.2112 4.68016 20.1409 4.60984C20.0706 4.53951 19.9752 4.5 19.8758 4.5H13.8758C13.7763 4.5 13.6809 4.53951 13.6106 4.60984C13.5403 4.68016 13.5008 4.77554 13.5008 4.875V7.875H11.487L11.6258 6.795C11.6322 6.74266 11.6275 6.68955 11.6119 6.63915C11.5964 6.58875 11.5705 6.54219 11.5358 6.5025C11.5002 6.46202 11.4563 6.42968 11.4072 6.40768C11.358 6.38568 11.3046 6.37453 11.2508 6.375H3.75075C3.69751 6.37507 3.64489 6.38647 3.59639 6.40846C3.5479 6.43044 3.50464 6.4625 3.4695 6.5025C3.43478 6.54219 3.40881 6.58875 3.39331 6.63915C3.3778 6.68955 3.37309 6.74266 3.3795 6.795L3.5145 7.875H2.62575C2.56202 7.87487 2.49931 7.89099 2.44354 7.92183C2.38777 7.95266 2.34078 7.99721 2.307 8.05125L0.432001 11.0512C0.39649 11.1081 0.37685 11.1734 0.375124 11.2403C0.373399 11.3073 0.389651 11.3735 0.422191 11.4321C0.454731 11.4907 0.502369 11.5395 0.560151 11.5734C0.617933 11.6073 0.683748 11.6251 0.750751 11.625ZM16.2308 10.875C16.2972 10.7631 16.3915 10.6704 16.5046 10.606C16.6177 10.5416 16.7456 10.5077 16.8758 10.5077C17.0059 10.5077 17.1338 10.5416 17.2469 10.606C17.36 10.6704 17.4543 10.7631 17.5208 10.875H16.2308ZM21.7508 18.375H17.2508V17.625H21.7508V18.375ZM21.7508 16.875H17.2508V14.625H21.7508V16.875ZM21.7508 13.875H17.2508V11.625H21.7508V13.875ZM20.2508 8.625H21.1695L22.5758 10.875H18.3233C18.2559 10.6171 18.1211 10.3817 17.9325 10.1932C17.744 10.0047 17.5087 9.86983 17.2508 9.8025V9H19.8758C19.9752 9 20.0706 8.96049 20.1409 8.89017C20.2112 8.81984 20.2508 8.72446 20.2508 8.625ZM14.2508 5.25H19.5008V8.25H14.2508V5.25ZM11.3933 8.625H13.5008C13.5008 8.72446 13.5403 8.81984 13.6106 8.89017C13.6809 8.96049 13.7763 9 13.8758 9H16.5008V9.8025C16.2428 9.86983 16.0075 10.0047 15.819 10.1932C15.6305 10.3817 15.4956 10.6171 15.4283 10.875H11.112L11.3933 8.625ZM7.12575 15.75H5.06325C4.91407 15.75 4.77099 15.6907 4.6655 15.5852C4.56001 15.4798 4.50075 15.3367 4.50075 15.1875C4.50075 15.0383 4.56001 14.8952 4.6655 14.7898C4.77099 14.6843 4.91407 14.625 5.06325 14.625H7.12575V15.75ZM5.62575 13.875V13.125H9.37575V13.875H5.62575ZM10.5008 15.1875C10.5008 15.3367 10.4415 15.4798 10.336 15.5852C10.2305 15.6907 10.0874 15.75 9.93825 15.75H7.87575V14.625H9.93825C10.0874 14.625 10.2305 14.6843 10.336 14.7898C10.4415 14.8952 10.5008 15.0383 10.5008 15.1875ZM10.827 7.125L10.212 12.045C10.2009 12.1365 10.1566 12.2207 10.0874 12.2815C10.0183 12.3424 9.92913 12.3757 9.837 12.375H5.1645C5.07237 12.3757 4.98322 12.3424 4.91406 12.2815C4.84489 12.2207 4.80056 12.1365 4.7895 12.045L4.1745 7.125H10.827ZM2.832 8.625H3.60825L3.8895 10.875H1.42575L2.832 8.625Z" fill="white"/>
<path d="M18.75 12.375H20.25V13.125H18.75V12.375Z" fill="white"/>
<path d="M18.75 15.375H20.25V16.125H18.75V15.375Z" fill="white"/>
</svg>
